<?xml version="1.0" encoding="utf-8"?>
<!-- Generator: Adobe Illustrator 26.0.0, SVG Export Plug-In . SVG Version: 6.00 Build 0)  -->
<svg version="1.1" id="Layer_1" xmlns="http://www.w3.org/2000/svg" xmlns:xlink="http://www.w3.org/1999/xlink" x="0px" y="0px"
	 viewBox="0 0 272 284" style="enable-background:new 0 0 272 284;" xml:space="preserve">
<style type="text/css">
	.st0{fill:#FFFFFF;}
	.st1{fill:#4ACD10;}
	.st2{fill:#76F739;}
	.st3{fill:#76F73A;}
	.st4{fill:#FAFEF0;}
	.st5{fill:#F1FDE7;}
	.st6{fill:#F0FAE7;}
	.st7{fill:#D9EBCC;}
	.st8{fill:#54E90F;}
	.st9{fill:#97E725;}
	.st10{fill:#009600;}
	.st11{fill:#97E727;}
	.st12{fill:#FAFDF3;}
	.st13{fill:#F8FDF1;}
	.st14{fill:#F9FDF1;}
	.st15{fill:#F5FCE7;}
	.st16{fill:#EEFAE3;}
	.st17{fill:#F9FDF3;}
	.st18{fill:#F2FAEB;}
	.st19{fill:#F5FCEB;}
	.st20{fill:#EAF7E3;}
	.st21{fill:#EBF6E5;}
	.st22{fill:#F3FBEB;}
	.st23{fill:#F5FCED;}
	.st24{fill:#F4FCEC;}
	.st25{fill:#C1FE3B;}
	.st26{fill:#F7FEE9;}
	.st27{fill:#D9F7C8;}
	.st28{fill:#FBFEF5;}
	.st29{fill:#4CCE12;}
	.st30{fill:#96E727;}
	.st31{fill:#F6FDEE;}
	.st32{fill:#51CF17;}
	.st33{fill:#99E72C;}
	.st34{fill:#F5FCEC;}
	.st35{fill:#EBFBD9;}
	.st36{fill:#F4FDEB;}
	.st37{fill:#F6FDED;}
	.st38{fill:#4BCE11;}
	.st39{fill:#FAFDF1;}
	.st40{fill:#FBFEF1;}
	.st41{fill:#4FD013;}
	.st42{fill:#4ACD11;}
	.st43{fill:#FCFEF6;}
	.st44{fill:#F8FEF0;}
	.st45{fill:#F6FEED;}
	.st46{fill:#ECF9E1;}
	.st47{fill:#ECFBE1;}
	.st48{fill:#78FE39;}
	.st49{fill:#77FE39;}
	.st50{fill:#019600;}
	.st51{fill:#4ACE10;}
	.st52{fill:#029701;}
	.st53{fill:#029601;}
	.st54{fill:#96E726;}
	.st55{fill:#55E811;}
	.st56{fill:#029700;}
	.st57{fill:#F8FDF0;}
	.st58{fill:#54E910;}
	.st59{fill:#FBFEF4;}
	.st60{fill:#F2FCE8;}
	.st61{fill:#51D018;}
	.st62{fill:#F1FCE8;}
	.st63{fill:#F4FBED;}
	.st64{fill:#069B01;}
	.st65{fill:#F4FCEB;}
	.st66{fill:#0FA008;}
	.st67{fill:#F0FCE7;}
	.st68{fill:#F7FDEF;}
	.st69{fill:#E8F6E2;}
	.st70{fill:#FBFEF3;}
	.st71{fill:#D8F1D0;}
	.st72{fill:#1AAF05;}
	.st73{fill:#E5F9D7;}
	.st74{fill:#F0FCE5;}
	.st75{fill:#53E40F;}
	.st76{fill:#4BCE10;}
	.st77{fill:#4DCE11;}
	.st78{fill:#F6FCEC;}
	.st79{fill:#55E011;}
	.st80{fill:#EFFAE3;}
	.st81{fill:#F7FDEA;}
	.st82{fill:#F2FBE7;}
	.st83{fill:#4CCE13;}
	.st84{fill:#F7FDED;}
	.st85{fill:#F8FDEF;}
	.st86{fill:#F6FCEE;}
	.st87{fill:#F6FBEF;}
	.st88{fill:#E9F9DE;}
	.st89{fill:#FBFEF2;}
	.st90{fill:#F8FEE8;}
	.st91{fill:#C0FD3B;}
	.st92{fill:#BDFC39;}
	.st93{fill:#BDFC3A;}
	.st94{fill:#B9FA38;}
	.st95{fill:#57E717;}
	.st96{fill:#F1FBE8;}
	.st97{fill:#F2FBE4;}
	.st98{fill:#F1FBE7;}
	.st99{fill:#AFF636;}
	.st100{fill:#F6FEE1;}
	.st101{fill:#E6F8D9;}
	.st102{fill:#E9F8DD;}
	.st103{fill:#F4FEDD;}
	.st104{fill:#96E725;}
	.st105{fill:#82E022;}
	.st106{fill:#62D41E;}
	.st107{fill:#F1FAEA;}
	.st108{fill:#318B41;}
	.st109{fill:#53E90F;}
	.st110{fill:#FAFEF3;}
	.st111{fill:#54E711;}
	.st112{fill:#399A3D;}
	.st113{fill:#26B612;}
	.st114{fill:#51E60F;}
	.st115{fill:#53E80F;}
	.st116{fill:#53E70F;}
	.st117{fill:#45DA0E;}
	.st118{fill:#74FB37;}
	.st119{fill:#60EA2E;}
	.st120{fill:#55E90F;}
	.st121{fill:#54E80F;}
	.st122{fill:#F5FDEC;}
	.st123{fill:#F8FDEA;}
	.st124{fill:#6ADA1C;}
	.st125{fill:#65D81A;}
</style>
<g>
	<path class="st0" d="M271.9,160c-2.9,7.4-7.1,14.1-11.9,20.4c-5.4,7-4.1,15.6-4.9,23.5c-0.7,6.7-2.4,13-5.5,18.9
		c-15.3,29.1-39.9,46.2-70.8,55.5c-2,0.6-3.9,0.8-5.9,0.7c-13.7-0.8-27.2,0.8-40.6,3.6c-3.9,0.8-7.6,0.2-11.2-1.2
		c-14.6-5.6-29.4-9.8-44.9-11.9c-9.7-1.3-17.8-7.1-25.3-13.1c-9.3-7.5-18.8-14.8-27.9-22.6c-7.4-6.3-10-14.9-10.9-24.3
		c-0.9-9.7,0.9-19.7-2.1-29.2c-3-9.9-6.6-19.5-9.9-29.3c0-3.7,0-7.3,0-11c4.7-8.3,6.3-17.5,7.9-26.7c5.6-32.6,21.5-58.8,48.6-78
		c5.2-3.6,10.1-7.6,15.2-11.3c10.1-7.3,21.1-12.3,33.8-13c7.9-0.4,15.1-3.9,22.1-7.1c9.8-4.5,18.6-2.9,27.3,2.6
		c0.3,0.2,0.6,0.4,0.8,0.6c15.3,13.4,33.9,19.4,53.1,24.2c9.5,2.4,17.5,8,25.3,14.2c17.4,13.7,22.1,33.5,27.6,53.1
		c2.5,8.7,3.8,17.6,3.3,26.5c-0.6,11.1,2.5,21.1,6.8,31C271.9,157.3,271.9,158.6,271.9,160z"/>
	<path class="st1" d="M9.4,124.1c0.9-5.4,1.4-10.9,3.4-16.1c0.4,0.2,0.8,0.5,1,0.9c0.7,0.9,0.9,2.6,2.7,1.9c0-2.1-2.4-1.6-2.9-3
		c0.5-3.6,1.2-7.1,3.6-10c2.5-0.1,4.6,3.1,7.3,1c4.8-3.5,9-7.6,14.1-10.6c1.8-1.1,3.7-2.4,5.8-0.6c0.7,0.7,1.2,1.6,1.1,2.6
		c-1.5,4.3-6,6.1-8,10c-0.9,1.7-2.3,3-2.8,4.2c2.8-4.3,6-9.1,11-12.3c1-0.7,2.3-1.9,3.5-0.6c1,1,0.7,2.5,0.2,3.8
		c-0.4,0.9-0.9,1.8-1.5,2.6c-3.1,3.7-3.9,7.9-3.7,12.6c0.1,2.5,0.3,5-0.8,7.4c-5.1,7.6-4.1,16.1-3.7,24.5
		c-2.6,7.9-2.6,15.9-1.9,24.1c-2.9,3.7-4.5,3.7-6.9,0c-2.5-3.9-4.2-8.3-4.9-12.9c-0.4-2.9-1.4-5.4-2.9-7.8c0.1-3.5-2.1-2.7-4.2-2.3
		c-3.2-3.4-6.8-0.3-10.2-0.5c-2.2-4.1-1.1-8.4,0-12.4C9.4,128.3,9.7,126.3,9.4,124.1z"/>
	<path class="st1" d="M202,264.4c-1.1,0.7-2.1,1.5-3.5,1.5c-11.6,5.4-24.1,3-36.3,3.9c-3.2-2.7,0.4-3.2,1.5-3.7
		c5.3-2,9.9-5,14.7-7.8c4.9-1.6,5.7-3,4.2-7.6c-0.7-0.6-1.5-1-2-1.8c-0.1-5.7-0.4-5.9-7.4-3.4c-6-1.5-12.2-2.6-17.9-5.2
		c-1-0.5-2.2-0.8-2.6-2c0.7-1.8,2.6-2.1,4-3.2c3.9-2.3,8.2-3.4,12.6-4.1c2.3-0.4,5-1.1,6.5,0.9c1.7,2.4-1.1,4.1-2,6.4
		c6.2-2.4,12.6-3.6,18.8-5.2c0.6-0.8,1.4-1,2.3-1c0.8,0,1.6,0.1,2.5,0.1c4.4-0.1,4.9,0.8,3.5,5.1c4.1-1.6,5.3-4.5,5.1-9.4
		c-0.2-7.2,5.5-11.1,11.2-14.5c3,0.1,6.1,0,9.1,0.6c1.6,0.5,2.2,1.7,1.3,3c-3.2,4.6-5.8,9.9-11.3,12.3c-3.1-1.6-3.1-1.6-3.1,0.2
		c0.5,0.7,1,1.4,1.8,1.6c4.4,1.3,4.5,1.4,1.1,4.9c-3.1,3.2-4.9,8.1-10.4,8.6c-1.2,0-2.2-2.1-3.5-0.8c-0.8,0.7-0.4,2.1,0.3,2.7
		c2.1,1.9,3.1-0.7,4.6-1.3c4.5-1.6,8.9-5.2,14-1.4c0.9,2.3-0.5,3.6-2.1,4.7c-5.1,1.9-10.2,3.4-15.9,2.9c-5.1-0.4-10.2,0.7-15.2,4
		c4.1,1.8,7.8,1.1,11.4,0.7c3.1-0.4,6.2-1.1,9.3,0.2c1.5,2.2-0.4,3.1-1.6,4.3C205.5,262.2,203.1,262.5,202,264.4z"/>
	<path class="st2" d="M160.9,268.8c12.4-1.8,25.2,0.5,37.5-2.9c-10.6,6-21.6,11-34.3,10c-10.3-0.8-20.5,0.8-30.6,2.6
		c-5.4,1-10.7,0.2-15.6-2c-11.9-5.5-24.6-7.7-37.4-9.8c-13.5-2.2-24.4-9.8-33.8-19.5c1.9-1.1,3.8-0.8,5.8-0.3
		c6.1,4.8,13.1,7.3,20.9,6.8c2.1,0.6,4.3,0.7,6.5,0.4c1,0.1,1.9,0.5,2.8,1c9.1,4.3,17.9,9.1,27.2,12.9c4.5,1.8,9.4,1.9,13.8,3.7
		c2,1.9,4.1,1,6.2,0c2.5-0.6,5.2-0.2,7.6-1.1c5.9-0.6,11.8-1.5,17.7-2.4C157.1,268.1,159.1,267.4,160.9,268.8z"/>
	<path class="st3" d="M17.7,98.1c-2,3.1-2.8,6.5-3.6,10c0.2,0.8-0.1,1.2-1,0.9c-0.1-0.3-0.2-0.6-0.3-0.9
		c5.7-26.7,18.7-48.9,40.6-65.5c7.5-5.7,15-11.6,22.8-17c8.1-5.7,16.9-10,27-10.8c9.1-0.7,17.4-3.9,25.7-7.4
		c11-4.6,22.9-1.5,29.8,7.1c-1.2,2,0.9,3.8,0.2,5.8c-0.4,0.3-0.9,0.4-1.4,0.4c-7.4-2.4-14.8-5.2-22.7-5.3c-2.5,0-5,0-7.5,0.3
		c-2.2,0.1-4.4-0.6-6.5,0.4c-9.3,2.3-18.8,4.1-27.7,7.8c-6.1,2.5-12.2,5.2-17.8,8.8c-1.8,2.3-4.3,3.5-7,4.5
		c-5.9,2.3-10,7.1-15.2,10.4c-3,1.8-6.9,2.5-7.9,6.7c-0.1,1.4-1,2.4-1.8,3.3c-1.1,1.1-2.2,2.1-3.2,3.3c-3.2,3.8-6,7.8-9.1,11.7
		c-3.3,2.3-4.1,6.4-6.5,9.3c-1.4,4.8-5.2,8.6-5.6,13.8C19,96.6,18.9,97.7,17.7,98.1z"/>
	<path class="st3" d="M163.2,17.1c7.6,6.9,17.2,9.6,26.7,12.5c1.4,1.6,3.1,2.3,5.3,1.6c33.2,7.5,53.9,25.5,61.7,63.9
		c-0.4,0.3-0.8,0.3-1.3,0.1c-1.6-1.3-1.5-3.3-2-4.8c-0.1,1.9,0.3,4.2-3.1,3.6c-2.5-6.5-4.9-12.9-8.4-19c-1.8-3.2-4.3-5.7-6.5-8.6
		c0.3-0.8,1-1.2,1.6-1.7c1.1-0.8,1.9-1.8,1.5-3.3c-0.5-1.7-2-1.9-3.5-1.9c-0.8,0-1.6,0.1-2.4-0.2c-4.2-5.2-8.3-10.5-14.2-14
		c-2.7-4-2.7-4-6.1,0c-2.7-2.9-6.1-4.2-9.8-5.3c-13.9-3.9-27.1-9.8-40.1-16.2c-1.6-0.8-3.5-1.3-3.8-3.5l0.2-0.3
		C160.4,18.8,161.7,17.8,163.2,17.1z"/>
	<path class="st2" d="M9.4,124.1c1.7,4.6-1.3,9-0.4,13.6c0.3,1.7-0.6,3.6,0.8,5.2c1.2,1.7,0.6,3.7,0.8,5.6c-1.1,9,0.3,17.4,4.8,25.3
		c2.1,3.6,2.9,7.7,4.1,11.7c0.1,2.5-0.2,5,0.6,7.5c0.5,7.9,2,15.5,5.4,22.7c0.4,3.9,1.6,7.3,4.7,9.9c0.8,0.8,1.2,1.9,1.5,3
		c3.6,6.3,8.2,11.4,15.1,14.2c0.5,1.5,0.6,3-0.2,4.4c-9.1-5.9-17.8-12.3-24.9-20.4c-4.7-5.4-6.9-12.6-6.6-19.5
		c0.8-17.8-2.8-34.7-9.4-51c-3.2-8-2.7-15.9,1.2-23.5C8.6,130.1,9.1,127.1,9.4,124.1z"/>
	<path class="st3" d="M256.2,95c0.2,0,0.5,0,0.8,0c3.7,10.4,5.3,21.2,5.1,32.2c-0.2,8.6,0.5,16.9,4.5,24.7c2.2,4.4,1.8,8.6-0.7,12.8
		c-2,3.3-3.9,6.6-6.1,9.7c-2.9,3.9-5.3,8-6.8,12.6c-1.2,0.4-1.9-0.2-2.5-1.1c-0.9-3.2,1.3-6,1.1-9.1c5.4-3.4,8.4-8.2,8.6-14.6
		c-1.3-0.8-3.1,1.2-4-1c-0.7-3.1-1.2-6.2,0.8-9.1c2.1-0.9,1.6,2.2,3.1,2.1c2.6-3.8-2.1-3.2-2.9-5c-1.6-8.7-1-17.5-2.9-26.2
		c-0.3-1-0.3-2-0.2-3c0.7-1.8-0.5-3.4-0.6-5.2c0.9-2.8,3-5.6-0.3-8.3c-0.8-2.6-1.9-5.1-0.9-7.9C254.1,98,255.8,97.3,256.2,95z"/>
	<path class="st3" d="M218.9,248c0.4-1.5,2.2-2.3,2.1-4.1c0-0.7,0.4-1.4,0.8-1.9c8.6-9.7,17.1-19.5,22.7-31.4
		c2.6-1.7,2.1-4.1,1.4-6.6c0-3.7,0.6-7.4,1-11c1.3-2.1,3.5-2.4,5.6-2.9c0.4,16-4.5,29.9-14.1,43c-9.9,13.4-21.1,24.6-36.6,31.3
		c1.4-3.4,5.6-4.1,7-7.5C211.9,253.5,216.7,252.3,218.9,248z"/>
	<path class="st4" d="M46.7,247.3c-0.3-1.8-0.6-3.6-0.8-5.3c-0.2-0.6-0.2-1.1,0.2-1.7c2.9-2.4,5.8-2.2,8.5,0.3c2.1,2,2,4.4,0.3,6.7
		c-0.4,0.6-1,0.8-1.7,0.8C50.9,248.4,48.8,248.1,46.7,247.3C46.7,247.3,46.7,247.3,46.7,247.3z"/>
	<path class="st5" d="M163.2,17.1c0.1,3-2.1,2.9-4.1,2.8c-1.3-1.8-4.5-3.4-0.3-5.5C160.4,15.2,162.1,15.6,163.2,17.1z"/>
	<path class="st6" d="M252.6,190.2c-1.2,1.5-1.9,4.2-4.6,1.7c-2.1-3.4-0.9-5.3,2.8-6.1c0.7,0.4,1.3,0.8,2,1.1
		C252.8,188,252.7,189.1,252.6,190.2z"/>
	<path class="st7" d="M195.2,31.1c-2.1,2.3-2.5,2.2-5.3-1.6C191.7,30,193.6,30,195.2,31.1z"/>
	<path class="st8" d="M24,145c1.8,2.2,2.9,4.6,3.2,7.6c0.5,5,2.8,9.4,5.1,13.8c1.3,2.5,2.9,2.1,4.7,0.5c3.5,1.8,2.8,5.7,4.7,8.6
		c1.1-15.1,9.4-28.6,9-44.8c-3.3,2.9-4.2,6.2-5.3,9.3c-1.5,4.2-2.3,4.4-6.3,1.9c-1.8-8.8-2.6-17.5,3.9-25c2.4,2.5,0.8,5.7,1.7,8.6
		c1.1-4,0.8-8.1,1.9-12c0.5-1.7,0.8-3.6,2.5-4.7c3.8,1.5,1.7,4.8,2.3,7.2c0.5-0.7,0.4-1.7,0.3-2.6c-0.8-7.6,2-13.6,7.9-18.3
		c3-2.5,5.1-5.5,5.4-9.7c0.1-2.1,1.1-4.2,3.7-3.7c2.4,0.5,2.6,2.7,2.5,4.8c-0.1,1.5-0.7,2.9-1.6,4.1c-3.1,4-4.1,8.5-4.1,13.5
		c0,5.4-1.4,10.5-3.5,15.4c-5,11.4-5.1,22.8,0.6,34.1c0.3,0.4,0.5,0.9,0.7,1.4c1.5,4.1,2,8.4,2.8,12.6c2,10.1,6.8,18.6,13.2,26.4
		c1.3,1.3,2.6,2.6,3.9,3.8c0.5,0.4,0.6-0.7,0.2-0.1c-1.6-0.9-2.7-2.5-4-3.7c-2.4-2.7-4.4-5.6-5.9-8.9c-0.6-1.4-1.6-2.9-0.3-4.5
		c5.6,2.4,11.2,4.9,17.3,5.8c2,0.3,3.4,2.1,4.4,3.9c5,9.5,13.4,11.9,23.2,11.2c6.8-0.5,13.3-2.2,19.5-5.2c4.9-3.1,11.1-4.1,15-8.9
		c0.8-0.5,1.7-1,2.7-0.4c1,2-0.4,3.4-1.4,4.9c-2.2,3.4-4.6,6.8-6.9,10.1c-1.2,1.8-2.2,3.3-1.2,5.4c-6.6,0.9-12.8,3.5-19,5.6
		c-6.1,2.1-12.5,0.9-18.9,1.5c9.4,1.9,18.9,3.2,28.6,3c0.8,0,1.6-0.3,2.5-0.3c1.1,0,2.6-0.3,2.9,1.1c0.3,1.4-1.1,2-2.1,2.5
		c-3.4,1.7-6.9,2.9-10.7,3.2c13.8,0,26.4-5.8,39.9-7.8c7.2-1,12.1-6.6,17.4-11.1c2.3-2,4.5-4.1,8.1-6.1c-13.1,8-25.7,14.7-39.1,19.9
		c-2.6,1-5.2,1.5-7-1.4c-0.9-0.8-1.9-1.4-3.1-1.8c-2.1-0.8-4.3-0.2-6.4-0.1c-1.1,0.1-2.6,0.3-2.9-1.2c-0.3-1.4,0.9-2,2-2.5
		c3-1.4,6.3-2.1,9.5-2.9c16.3-3.8,29.9-11.8,39.4-25.9c1.3-1.9,2.3-4.1,4.9-4.8c4.8,1.4,9.1-1.7,13.7-1.8c1-0.5,0.1,2.6,2.1,0.9
		c4.7-3.9,7.9-8.7,9.7-14.4c0.5-1.7,0.9-3.5,1.7-5.1c2.2-6.5,6.6-12.1,8.2-18.8c0.4-1.9,1.3-3.4,3.1-4.4c1.8,0.1,3.7-4,5.5,0.1
		c0.2,3.7-1.8,7-1.6,10.7c0,0.5-0.1,0.9-0.2,1.4c-1.4,3.2,0.4,6.4-0.3,9.7c-0.4,1.9,2.3,2.5,4.1,2.9c2.4,2.3,5,1.3,7.6,0.3
		c1.8,0.9,2.1,2.4,2,4.2c-5.2,4.2-8.6,9.9-12.8,14.9c-1.1,1.3-3,3.1,0.5,4c0.4,2.5-1.1,3.9-2.7,5.3c-0.4,0.2-0.9,0.2-1.3,0.1
		c-1.2-1.1-1.7-3-3.6-3.5c-1.7-1.1-3.8-1.4-5.5-2.6c0.7-4.5,4.1-6.6,7.6-8.6c0.7-0.1,1.6,0.5,2.2,0c0.5-0.6-0.2-1-0.7-1.3
		c-3.9-0.2-7.3-0.1-8.6,4.8c-0.6,2.3-3.1,3.8-5.1,5.2c-2.8,2-4.7,4.5-5,8c-2.7,4.8-7.2,8.3-9.8,13.2c-0.7,0.2,0.3,0.9-0.1,0.4
		c2.1-1.7,4.3-1.1,6.5-0.1c0.6,1.1,0.2,2-0.5,2.7c-5.7,6.4-11.9,12.2-18.5,17.7c-2.5-4.5-4.3-1.2-6.3,0.5c-1.2,0.4-2.4,0.4-3.5-0.2
		c-0.8-3.9-0.6-4.2,3.7-9.6c-8,4.4-15.8,8-24.1,10.2c-8.5,2.2-17.1,3.9-26,3.4c3.2,1.8,6.6,2.8,9.8,4.4c2,1,4.5,1.5,5.1,4.2
		c-0.7,3-3.4,3.8-5.1,4.8c5.2-1.8,10.9-1.9,16.6,0.1c1.7,0.6,3.5,1.2,3.4,3.6c-1.8,3.9-5.8,4.5-9.2,5.1c-8.2,1.3-16.4,1.7-24.4-1.6
		c-1.9-4.8-5.8-4.9-10.1-4.2c-2.9-1.1-5.6-2.8-8.1-4.7c-1.2-0.9-3.1-2-0.9-3.8c1.5-0.6,2.9-0.2,4.3,0.4c6.1,2.9,12.9,2.9,19.3,4.6
		c-5.6-2.1-12.1-1.9-16.7-6.4c-1.2-1.1-2.6-1.8-4.2-2.1C94.2,227,77.1,216.7,60.9,205c-0.5-0.4-1.1-0.9-1.6-1.4
		c-1.8-1.7-4.2-1.3-6.3-1.9c-2.7-1.4-6.1-1.8-8.2-5.8c2.2,6.2,5,10.8,9,14.7c1.8,1.8,4.2,3.2,4.6,6.2c-1,1.6-2.4,3.3,0.4,4.7
		c2.5,2.7,4.2,5.8,4.7,9.4c-0.5,1.6-1.1,3.2-2.4,4.4c-3.1-1.2-3.3-4.6-5.1-6.8c-3.3-3.9-5.4-8.6-8.7-12.6c-2.1-2.9-2.3-6.6-3.7-9.8
		c-0.2-0.4-0.3-0.9-0.5-1.3c-1.2-4-2.6-7.8-7.8-8.3c-1-0.1-1.6-1.1-1.6-2.2c0.8-2.5,4-4.1,2.5-7.3c-0.4-1.5-1-3-0.9-4.6
		c0.9-4.1-1.7-4-4.4-3.7c-3-0.8-4.8-3-6.4-5.5c-0.2-0.7-0.2-1.4,0.1-2.1c1.8-2.4,3.4-4.8,0.1-7.4c-3.9-2.1-4.2-5.6-3.9-9.4
		c0-0.5,0.2-1.1,0.3-1.6C22.7,150.2,20.1,146.4,24,145z"/>
	<path class="st9" d="M49,109.2c-1.9,6.6-2.3,13.5-3.4,21.2c-4-4.6-1.7-9.2-2.5-13.4c-0.8-9,0.5-17.5,6.3-25
		c-7.9,3.4-11.7,10.4-16.5,16.5c0.4-3.4,1.8-6.7,4.8-10.3c2.4-2.9,5.1-5.6,7.7-8.4c0.4-0.3,0.8-0.5,1.3-0.8c0.9-0.4,2.8-0.4,2.1-2
		c-0.7-1.6-2.1-1.2-3.3-0.2c-0.5,0.4-0.9,0.9-1.6,1.1c-1.8-1.1-3.1,0.2-4.4,1.2c-4.8,3.6-9.6,7.2-14.5,10.8c-1.1-1-1-2.3-0.8-3.6
		c3.3-7.1,7.7-13.6,13.5-18.9c3.5-2.7,5.2-6.8,7.8-10.1c1.6-1.1,3.9,1.3,5.3-1c3.7-2.9,9.2-3.8,10.9-9.5c-2.7,0.7-3.8,3.2-6.1,3.8
		c-1.8,0.1-3.5,0.5-5.2,0.8c-0.5-0.1-0.8-0.4-1-0.8c-0.5-1.5-1.1-3.1-0.4-4.7c2.5-1.6,5.3-2.5,7.4-4.7c1.3-1.1,2.9-1.6,4.5-1.8
		c6.2-0.1,11.3-2.9,16.5-5.7c1.7-0.9,3.6-1.6,5.5-2c1.5-0.1,2.9,0.2,4.1,1.2c0.6,2.4-1.4,3.1-2.8,3.9c-2,1.1-4,2.3-5.6,3.9
		c-1.4,1.2-3,2-5.2,3.7c5.1-3.3,10.1-4.6,14.5-7.1c1.3-0.6,2.6-1.2,4.1-0.6c1.6,1.9,3.1,3.9,5.2,5.4c-3.1,7.2-9.2,10.9-16,13.7
		c-2.3,0.9-0.5,1.1,0,1.7c0.4,0.6,0.2,1.2-0.1,1.9c-2.6,2.4-5.8,2.1-8.9,1.6c-2.5-0.4-4.9-0.8-7.4-0.3c-4.5,1-7.5,4.9-7.5,9.8
		c0,3.1,0.8,6.3-1.5,9.1c-0.2,0.2-1.1,0.3-0.4,0.9c4.2,3.6,0.3,5.8-1.6,8C51.2,101.6,47.8,104.3,49,109.2z"/>
	<path class="st10" d="M39.1,142c2.8,1.1,5.2,1.4,5.1-2.9c0-0.9,0.5-1.9,1.1-2.8c1.8-2.7,2.3-8.2,5.8-7.4c2.3,0.5,1.3,6.4,0.6,9.6
		c-2.4,10.8-5.4,21.4-8,32.2c-0.7,2.7-0.7,5.5-1,8.8c-3.6-3.7-3.5-8.6-5.6-12.6C35.7,158.5,34.9,150.1,39.1,142z"/>
	<path class="st11" d="M21.9,153.7c0.5,3.5-0.7,7.6,4.1,9.1c-3.9,2.3-1,5.4-0.9,8.2c0,0.7,0.1,1.4,0.1,2.1c1.5,3.2,0.2,5.7-1.9,8
		c-0.5,0.3-1,0.3-1.5,0.1c-1.3-1.5-1.4-3.4-1.7-5.1c-0.6-3.4-3.1-5.4-5.4-7.5c3.7-2.8,1-5.1-0.7-7.4c-0.7-4.3-0.9-8.5,0.6-12.7
		c1-2.2,2.2-4.2,4.4-5.4c1.5-0.5,2.3-3.1,4-2.4c1.8,0.7,0.6,2.9,0.9,4.4c-2.2,2.3,0.3,5.7-1.9,8c-1.1-0.4-1.5-2.2-3.1-1.6
		C19.1,153.4,21.1,152.8,21.9,153.7z"/>
	<path class="st12" d="M30.3,121.1c2.3,0.3,4.9,0.5,3,4.1c-0.2,0.4-1.8,1.2-0.1,1.7c1.5,0.4,2.6,0.8,1.9,2.6
		c-0.7,1.9-2.4,2.6-4.3,2.9c-1.5,0.3-3,0.3-3.8-1.4c-0.4-0.7-0.2-1.9-0.8-2.2c-1.6-1.2-4.5-1.6-3-4.5
		C24.7,121.5,27.6,121.4,30.3,121.1z"/>
	<path class="st13" d="M19.2,142.9c0.1,2.4-2,3.3-3.2,4.9c-1.9,2.1-3.9,3.3-6,0.1c-0.9-1.6-0.7-3.3-0.2-5
		C13.6,138.8,15.6,138.8,19.2,142.9z"/>
	<path class="st14" d="M25,96.2c0.5,1.2,0.4,2.5,0.1,3.7c-3.1,2.1-5.5,1.2-7.3-1.9c0.2-0.9,0.4-1.8,0.5-2.7c0.2-0.5,0.6-0.9,1.1-1.2
		C21.6,93.8,23.9,93.3,25,96.2z"/>
	<path class="st15" d="M43.9,87.9c0-2.8,1.4-4,4-3.4c1.9,0.4,3.5,1.7,2.9,3.8c-0.9,2.9-3.4,1.8-5.4,1.4
		C44.8,89.2,44.3,88.6,43.9,87.9z"/>
	<path class="st16" d="M13.1,108.9c0.3-0.3,0.6-0.6,1-0.9c1.8-0.1,3.8-0.5,4.6,1.6c0.5,1.2-0.3,2.2-1.3,2.9
		c-1.1,0.8-2.1,0.5-3.1-0.3C13.1,111.4,12.7,110.3,13.1,108.9z"/>
	<path class="st10" d="M190.2,223.7c0.9-2.8,3.2-4.3,5.3-6.1c4.8-4.3,9.1-9,13.7-13.6c1.6-4.4,5.5-6.7,8.6-9.8
		c1.1-1.1,2.7-1.5,4-0.4c1.4,1.1,1,2.6,0.5,4.1c-0.4,1.1-0.9,2.1-1.6,3c-2.5,4-2.1,8.8-3.6,13c-2.1,3.6-6.6,5-8.5,8.9
		c-1.1,2.2-2.3,4.4-1.4,6.6c1.9,4.4-0.1,6.4-3.9,7.9c-1.5,0.6-2.8,1.6-4.3,2.4c-0.4-1.4,0.8-1.8,1.2-2.6c0.6-1.1,1.2-2.2,0.5-3.3
		c-0.8-1.4-2-0.6-3.1-0.3c-1,0.3-2,0.3-2.7-0.5c0.1-0.7,0,0.2,0-0.5c0-1.2,1.2-2.5-0.1-3.6c-0.4-0.3-0.9-0.1-1.4,0.1
		c-1.6,1-1.6,2.3-0.9,3.8c0.1,0.3,0.2,0.6,0.4,0.9c-7.1,3.2-15,3.8-22.8,7.5c1.9-3.6,6.4-6.3,5-8.4c-2-3-6.4-0.3-9.6,0.2
		c-2.9,0.4-5.6,1.8-8.4,2.8c-1.3-0.8-1.8-1.9-1.6-3.4c7.1-6,15-9.6,24.5-8.7c1.3,0,2.6,0,3.8,0C185.9,223,188.1,223.7,190.2,223.7z"
		/>
	<path class="st10" d="M162.9,245c-7.3-5.7-15.2-3-23.9-1.1c3.6-2.7,6.4-4.8,9.1-6.9c1.1-1.7,2.5-1.9,4.1-0.7
		c0.5,0.5,0.8,1.1,0.9,1.8c6.6,3.4,14.2,3.9,21,6.7c1.7,2.3,4.6,2.5,6.8,3.8c0.7,0.3,1.3,0.6,2,0.9c0.4,3.7-2.3,6-3.7,9
		c-5.1,5.2-12.1,7-18.3,10.2c-7.9,1.5-15.8,3.1-23.9,3.1c-1.8,0.3-1.4-0.9-1.3-2c4.6-2.9,9.1-5.8,14.8-6.6c7-1,10.3-6.2,12-12.5
		C162.9,249,163.3,247,162.9,245z"/>
	<path class="st9" d="M222,242.9c-0.3,0.4-0.7,0.7-1,1.1c-5.1-2.4-9.2,1.3-13.8,2.1c-1-0.3-1.6-0.9-1.2-2c5.7-2.1,7.5-8.4,12.3-11.7
		c-2.7,0.6-5,0.6-6.2-2.2c0.9-1.2,2.1-1.5,3.6-1.1c5-3.8,9.4-8,11.2-14.2c-0.1-0.7,0.2-1.3,0.7-1.9c1.7-2.2,3-4.6,4.3-7
		c0.7-1.3,1.2-3.2,3.3-3c1.4,1.2,3.3,2,4.5,3.5c1.2,4.1-0.3,7.6-2.9,10.7c-3.1,0.9-6.7,1.2-5.1,6c-0.7,4-5.5,4.7-6.6,8.4
		c-4.7,2.4-4.7,2.6-0.8,6.7C223.2,239.1,222.3,241.2,222,242.9z"/>
	<path class="st12" d="M218.9,248c-0.7,5.9-5.8,6.9-9.9,8.9c-4-0.2-7.9,0.2-11.9,0.8c-2.6,0.4-5.3,0.2-8,0.1c-1.3,0-3-0.4-3.4-1.6
		c-0.4-1.6,1.5-1.9,2.5-2.6c4.1-2.5,8.7-3.6,13.4-3.1C207.6,251,213.1,248.8,218.9,248z"/>
	<path class="st17" d="M227.7,213.9c-0.3,0.3-0.6,0.5-0.8,0.8c-3.3,0.1-6.6,1-9.8-0.8c-0.9-4.5,0.5-11.3,2.8-13.1
		c1-0.5,1.8-0.1,2.7,0.2c2.1,1.5,4.1,3.1,1,5.5c-1,0.8-0.4,1.7-0.1,2.6C224.2,211.4,228.4,210.4,227.7,213.9z"/>
	<path class="st18" d="M180.9,248.8c-3.1,0.2-6.7,1.2-6.8-3.8c1.9-2.7,4.3-3.5,7.1-1.4C183.6,245.3,182.8,247.1,180.9,248.8z"/>
	<path class="st19" d="M206,243.9c0.4,0.7,0.8,1.4,1.2,2c-0.8,2.4-3,3.9-4.9,2.6c-1.4-1-2.2-3.9-2.1-5.9c0.1-1.9,2-2.3,3.8-1.3
		C205,241.9,204.6,243.6,206,243.9z"/>
	<path class="st20" d="M179.2,258.6c-1.5-4.1,3.3-5.6,3.7-8.9c2.6,0.2,3.8,1.4,2,3.7C183.4,255.5,184.8,261,179.2,258.6z"/>
	<path class="st21" d="M192.9,233.8c-2.5-0.8-3.8-2.1-2-4.6c1.3-1.7,3.4-3.6,5.3-1.8c2,1.9,0.6,4.2-1.4,5.8
		C194.2,233.3,193.6,233.6,192.9,233.8z"/>
	<path class="st22" d="M153.1,238.2c-0.4-0.5-0.9-0.9-1.3-1.4c-0.4-4.1,0.3-4.7,4.2-3.8c0.4,1,0.7,2,1.1,2.9
		C156.4,237.8,155,238.4,153.1,238.2z"/>
	<path class="st23" d="M215.6,228.9c-1,1-2.2,1.4-3.6,1.1c-0.6-1.4-2.6-3-0.1-4C214.1,225.1,215.9,226.1,215.6,228.9z"/>
	<path class="st24" d="M185.3,261.7c-0.1,1.3-0.6,2.2-1.7,2.3c-1.6,0.1-2.4-1.1-2.5-2.4c-0.1-1,0.9-1.6,2-1.7
		C184.5,259.9,185.1,260.7,185.3,261.7z"/>
	<path class="st1" d="M136.1,269.9c-0.1,0.8,0.2,1.5,0.9,2c-2.5,2-5.6,0.5-8.3,1.2c-1.6-0.1-3.2-0.3-4.8-0.2
		c-15.4-2-28.5-9.9-41.9-16.9c1.8-1.9,4.1,0.2,6.3-0.8c0.1-2-1.3-3.5-2.4-5c-1.8-2.4-0.9-3.8,1.3-5.1c0.9-1,1.8-2.1,0.2-3.1
		c-1-0.6-1.7,0.4-2.2,1.3c-0.3,0.7-0.6,1.5-1.3,2c-2.5-1.1-4.6-2.2-6.8,1.1c-1.4,2.1-4.6,2.4-6.9,1c-11.4-6.9-19.5-16.4-23-29.5
		c-0.3-1-0.1-2,0.7-2.8c4.6,6.4,9.6,12.5,12.6,20c0.5,0.1,0.9,0.3,1.3,0.6c0.9,0.6,1.8,1.9,2.9,0.9c1.3-1.2,0.2-2.4-0.6-3.4
		c-0.5-0.6-1.1-1.2-1.3-2c-1.8-3-2.6-6.6-5.2-9.1c-0.4-1.6,0-2.9,1.1-4.1c6.5,3.2,11.9,7.7,15.3,14.3c-0.8,1.1-3.7,1.5-1.9,3.6
		c1.3,1.4,2.2-0.4,2.7-1.6c0.6-2.1-0.8-3.4-2-4.7c-4.5-5.1-8.2-10.7-12.6-15.9c-1.2-1.4-2.1-3-2.1-4.9c0.3-1.9,0.2-4.1,1.8-5.6
		c0.3,0.3,0.7,0.7,1,1c0.7,1.1,1.2,2.3,2.5,3c12,7.3,21.5,17.8,33.4,25.1c0.9,0.6,2.3,1.2,1.9,2.6c-0.4,1.4-1.8,1.9-3.2,2
		c-2.7,0.1-5.2-0.9-7.8-2c4.4,4.2,9.5,7.1,15.2,8.8c1.2,0.4,2.7,0.5,3.1,2.1c-1.6,1.6-4,2.6-4,5.5c-0.3,0.4-0.8,0.7-0.9,1.1
		c-0.1,1.3,0.8,0.4,1.1,0.3c1.1-0.4,2.1-0.8,3-1.4c1.4-0.8,1.3-2.8,2.9-3.4c3.9,4.7,3.8,9.4-0.2,12.9c1.1,1.3,2.8,1.7,3.9,2.8
		c1.4,3.8,4.5,2.5,7.2,2.3c3.4,2.2,7.1,3.3,11.2,2.6C132.4,268.5,134.5,268.3,136.1,269.9z"/>
	<path class="st25" d="M87.8,246.2c-0.5,0.9-3.4,0.4-1.3,2.8c1.8,2,4.7,5.1,3.7,6.9c-1.7,2.7-5.3-0.3-8.1,0
		c-0.8-0.4-1.6-0.8-2.4-1.2c-1.7-3.4-3.5-1.8-5.3-0.1c-8,0.9-15.6,0.3-21.2-6.6c1.9-2,2.8-4.3,0.8-6.6c-2.3-2.7-5-1.9-7.6-0.4
		c-4.7-2.9-7.9-6.9-9.2-12.3c1-0.6,1.9-0.3,2.9,0c1.3,0.3,2.9,0.8,3.2-1c0.3-2-1.4-1.8-2.7-2c-2.8-0.4-5.7-0.2-8.3-1.2
		c-1.4-1-1.9-2.6-2.9-3.9c-1.1-1.5-2.1-3.3-4.3-3.4c-4-7.6-6-15.6-5.8-24.1c1.9-0.7,3.5-1.5,4.1-3.7c0.5-1.8,2-2.4,3.8-2
		c1.9,4.1,1.9,4.1,6.9,7c5.8,1.3,9.9,4.2,10.2,10.7c-0.4,0.3-0.9,0.4-1.4,0.2c-1.5-0.4-3-0.5-3.2,1.6c-0.1,0.6,0.1,1.4,0.7,1.6
		c1.8,0.6,2.1-1,2.7-2c0.3-0.6,0.7-1.1,1.1-1.5c2.5,2.9,1.9,7,4,10c2.3,13.9,11.1,23.4,22.2,31c3.8,2.6,6.7,0.6,9.4-5.3
		c2,0.8,2.4,3.1,4.1,4.2C85.3,244.8,86.9,244.5,87.8,246.2z"/>
	<path class="st26" d="M74.3,254.6c0-2.3,1.3-4,3.3-4c2.2,0.1,2.6,2.1,2,4.1C77.8,256.4,76.1,256.2,74.3,254.6z"/>
	<path class="st27" d="M123.9,272.9c1.7-2.3,3.3-2.1,4.8,0.2C127,276.6,125.5,274.7,123.9,272.9z"/>
	<path class="st1" d="M234.9,134c-1.7-1.9-2.4,3.1-4.2,0.7c-1.6-2.9-1.9-6.1-1.9-9.4c1.3-3,1.3-6.7,4.7-8.6c2.4,2.1,2.1,0.1,3-1.5
		c3.6-7.1,3.3-14.3,1.2-21.6c-3.1-11.4-11-18.7-20.7-24.6c-0.6-0.4-1.1-0.8-1.6-1.2c-2.4-1.5-4.9-3-7.1-4.8
		c-1.1-0.8-2.2-1.6-3.1-2.6c-3.9-3.9-7.6-8.1-12.6-10.8c-1-0.5-2-1.2-2.1-2.6c0.1-0.8,0.6-1.2,1.3-1.5c7.3,2.5,13.4,7.2,19.2,10.8
		c-4.8-6.2-12.5-9.6-19.6-13.9c-8.7-8.6-19.7-12-31.4-13.6c-1.7-0.2-3.3-0.4-4.6,0.9c-3.6,0.6-7,0.1-10.1-1.8
		c-1.4-1.2,0.2-4-2.1-4.4c-1.7-0.2-1.9,2.4-3.4,3c-1.3,0.4-2.4,0.2-3.2-1c0-4.3-2.1-3.8-4.8-2.1c-2.5-0.4-5-0.7-6.3-3.4
		c-0.1-1.9,0.2-3.6,1.6-5c8.1-2.5,15.9-0.4,23.6,1.9c2.8,0.8,5.5,2.2,8.3,3.3c14.8,7.9,30.1,14.7,46.4,19.1c3.2,0.9,6.9,1.4,7.6,5.7
		c2.1,0.2,4.1,0.6,6.2,0c6.7,2.6,11,7.7,14,14c0.1,2.7,2.2,4.7,3,7.1c5.9,1.8,6.7,7.8,9.3,12.1c2.9,4.7,5.4,9.8,5.6,15.6
		c-0.9,2.2,2.6,2.5,1.9,4.6c0.3,2.8,0.7,5.7,1,8.5c-0.7,2.7-4.4,5.4,0.1,8.1c1.1,1.1,1.7,2.4,1.1,4c-1.7,1-2,2,0,3
		c2.8,7.4,1.7,15.2,2.8,22.8c0.2,1.8,0.2,3.6,0.3,5.4c0.3,0.7,0.3,1.3-0.4,1.7c-1.8,3.1-0.2,6.6-0.9,9.8c-0.5,1.6-1.6,2-3.1,1.4
		c-1.9-3.6-2.9-7.6-3.8-11.5c0.7-2.7-0.2-4.9-2-6.8c-1.6-3.3-2.2-6.8-2.9-10.3c-1.2,3.7-0.1,7.8-2,11.5c-2.6,0.2-2.5-2.1-3.2-3.6
		c-0.8-1.8-1.8-3.5-2.6-5.3c-0.8-3,0.6-5.8,0.4-8.6C236.4,130,238.4,133.4,234.9,134z"/>
	<path class="st1" d="M83.1,42.2c-7.4,2.8-13.4,9.3-22.3,7.8c-2.6-1-5.6-0.9-7.7-3.1c4.7-4.1,9.1-8.7,15.3-10.7
		c0,3.2-3.5,4.2-4.6,7.3c2.6,0.7,4.8,0.1,6.8-1.4c2.1-1.6,4.3-3,6.5-4.4c1.1-0.7,2.6-1.2,2.3-2.8c-0.2-1.3-1.7-1.4-2.7-1.7
		c-0.6-0.2-1.2-0.5-1.7-1c4.7-4.7,10.9-6.6,16.8-9.1c9.3-4,19.1-6.2,29-7.9c1.6,1.2,2.3,2.8,2.4,4.8c-0.7,1.3-1.9,2-3,2.9
		c-1.5,1.1-3.3,1.6-5.1,2.3c-1.6,0.5-3,1.2-4.5,1.9c-4.9,2-10.2,2.5-15.3,3.5c-3.7,0.8-7.9,0.7-10.2,4.6
		C84.7,37.5,83.5,39.7,83.1,42.2z"/>
	<path class="st28" d="M75.1,32.1c1.5,0,3.1-0.4,4.4,0.1c1.9,0.7,4.1,3,1.6,4.3c-6.2,3.4-11,10.5-20,8.1c1.7-3.6,5.2-5.5,7.3-8.5
		C70.6,34.8,72.8,33.5,75.1,32.1z"/>
	<path class="st29" d="M51.1,67.2c-1.7,2.9-3.3,3.3-5,0c-4.1,0.6-7.5,2.9-11.2,4.4c-1.1,0.8-2.1,1.9-3.7,1.7
		c-0.3-0.2-0.4-0.5-0.4-0.7c0-0.3,0.1-0.4,0.2-0.4c2.2-4.6,5.5-8.4,9-12c3.1,1.5,6.6,1.7,9.9,2.1c0.7,0.3,1.2,0.7,1.5,1.5
		C51.1,64.8,49.9,65.9,51.1,67.2z"/>
	<path class="st30" d="M31.2,73c0.9-0.6,1.8-1.3,2.7-1.9c1.8,1.5,2.2,3.6,2.6,5.7c-1.7,3.4-5.2,4.9-7.7,7.6
		c-3.3,3.5-6.6,6.9-9.7,10.6c-0.2,0.2-0.5,0.4-0.8,0.4c0.1-5.6,4.2-9.5,5.9-14.4C27.5,79.2,28.3,75.2,31.2,73z"/>
	<path class="st31" d="M53.1,46.9c2.7,0.7,6,0,7.7,3.1c-1.3,0.6-2.5,1.3-3.8,1.9c-3.9,1.5-7.6,3.5-12,2.3c-0.7-0.2-2-0.3-1-1.3
		C46.6,50.2,49,47.2,53.1,46.9z"/>
	<path class="st32" d="M45,54.2c3.9-1.4,7.9-2.3,12-2.3c-2.2,2.5-4.9,4-8.2,4.5c-1.1,1-2.5,1.3-3.9,1.5c-0.8,0-1.4-0.2-1.9-0.8
		C43.7,56.1,44.4,55.1,45,54.2z"/>
	<path class="st33" d="M43,57c0.7,0,1.5,0.1,2.2,0.1c1.2,1.8,2.7,3.2,4.8,3.9L50,61c0.6,0.5,0.7,1,0.5,1.7c-3.7,0-7.9,1.9-10.5-2.7
		C40.7,58.7,41.7,57.7,43,57z"/>
	<path class="st34" d="M123.4,20c-1.2-1.4-2.5-2.8-2.5-4.9c2-2.4,4.1-1.3,6.1,0c0.5,1.8-0.1,3.4-1.3,4.8
		C125,20.9,124.2,20.7,123.4,20z"/>
	<path class="st35" d="M31.2,73c-1.2,3.7-2.4,7.2-7,8c2.8-2.5,2.2-7.7,6.8-8.9C31,72.4,31,72.7,31.2,73z"/>
	<path class="st28" d="M236,66.2c-2.6-1.7-5.6-3.3-3-7.1c2.1-1.2,4.3-1.9,6.4,0c1.3,1.2,1.2,2.9,0.9,4.6
		C239.6,66.1,237.8,66.1,236,66.2z"/>
	<path class="st36" d="M252.9,98.4c-0.9-1.4-5.1-1.4-1.9-4.6c3.6-1.9,0.9-4.8,1-8.2c2.9,3.1,2.7,6.7,4.3,9.4
		c0.2,1.4,0.4,2.8,0.7,4.6C255.3,99.1,254.1,98.8,252.9,98.4z"/>
	<path class="st37" d="M219,45c-2.1,3.2-4.1,2.1-6.2,0c-0.2-2.1-0.5-4.7,2.6-4.7C218.2,40.3,219.2,42.4,219,45z"/>
	<path class="st38" d="M10,147.9c2.1,1.7,4,0.3,6-0.1c-1.5,4.6-0.9,9.3-1,14c-1.6,2.2-0.4,4.3,0.1,6.5c6.6,2,6.6,7.6,7,12.9
		c0.2,2.4,0.2,4.7-3.1,4.8c-3.9-11.1-11.4-21.2-10-33.9C9.2,150.6,8.6,149.1,10,147.9z"/>
	<path class="st29" d="M37,229.2c3.1,3.9,6.1,7.9,9.2,11.8c-0.1,0.3-0.2,0.6-0.4,0.9c-0.8,0.6-1.4,2.1-2.8,0.9
		c-4.6-4.2-10.2-7.5-12.2-14C33.1,227.3,35.1,227.1,37,229.2z"/>
	<path class="st39" d="M19,186c2.7-0.5,1.5-3.6,3.1-4.8c0.3-0.1,0.6-0.3,1-0.4c3.7-1.8,5,0.3,5.9,3.4c0,1.4-0.1,2.8-1.8,3.3
		c-2.1,0.1-3.1,1.2-3.3,3.4c-0.2,3.4-2.2,3.6-4.7,2.1C17.8,190.6,17.1,188.3,19,186z"/>
	<path class="st40" d="M37,229.2c-2-1-4.1,0.4-6.1-0.3c-0.4-1-0.8-2-1.1-3c-0.1-1.6,0.7-2.4,2.3-2.4c3,0.3,6.1,0.9,9.1,0.7
		c1.7-0.1,2.9-0.2,3.7,1.4c0.7,1.2,0.6,2.7-0.4,3.7c-1,1.1-2.4,1.8-4,1.1C39.4,230.1,38.6,228.6,37,229.2z"/>
	<path class="st41" d="M32.1,223.5c-0.8,0.8-1.5,1.6-2.3,2.4c-4-1.7-4.8-5.1-4.9-8.9c1.4-0.6,2.6-2,3.8,0.6
		C29.6,219.7,31.7,221.2,32.1,223.5z"/>
	<path class="st42" d="M224.8,231c0.6-3.9,4.9-5,6.3-8.3c2.7-1,4.8-2.6,4.9-5.8c1.9-3.4,3.2-6.9,3.1-10.8c0.3-2.3,0.5-4.6-0.2-6.8
		c-0.3-3.6-0.4-7.1,1.9-10.1c1.9-2.1,3.5-4.2-0.2-6.1c-0.6-0.8-1-1.7-0.8-2.8c3.6-2.7,7.4-4.7,12.1-3.5c2.6,3.3-1.4,5.9-0.9,9
		c-2.8,1.2-2.9,3.5-2.8,6c-0.4,4.4-0.8,8.8-1.1,13.1c-0.5,1.9-0.6,4-1.8,5.7c-4.8,12.8-13.8,22.6-23.2,32.2c-0.5-2-0.7-3.9,1.9-4.8
		C224.6,235.8,224.4,233.4,224.8,231z"/>
	<path class="st43" d="M251.8,176.8c-4.1,0.9-8.1,2.1-11.8,4.1c-1.3,1.8-2.9,2.8-5.2,2.2c-3.4,1.2-2.1-2-2.9-3.1
		c-1.4-1.9,0.8-1.6,1.6-1.7c1.5-0.3,2.2-1.2,2.7-2.5c1.9-5.4,5.7-9.2,10.6-11.9c2.2-1.5,4.6-2.1,7.2-0.9c1.2,0.2,2-0.4,2.9-1.1
		c1.7-0.2,2.4-2.4,4.2-2.3C262.4,167,258.5,174.2,251.8,176.8z"/>
	<path class="st44" d="M254,115c-1.7,0.2-3.6,0.5-4-1.8c-0.5-3.1,1.3-5,3.9-6.3C259.9,109.5,255.6,112.2,254,115z"/>
	<path class="st45" d="M257.7,152c0.1-0.6,0.3-1.1,0.4-1.7c1.1-0.5,1.7-2.6,3.2-1.5c1.6,1.1,0.8,3,0.6,4.6c-0.2,1.5-0.4,3.6-2,3.6
		C256.6,156.9,258.2,153.8,257.7,152z"/>
	<path class="st46" d="M255.1,122c-0.8,0.5-1.8,1.3-2.6,0.5c-0.9-0.8-0.9-2.2-0.3-3.2c0.7-1.3,1.9-0.8,3-0.3
		C255.1,120,255.1,121,255.1,122z"/>
	<path class="st47" d="M245.2,210.6c-0.4-2.2-0.8-4.4,1.8-5.7C248.3,207.5,249.4,209.9,245.2,210.6z"/>
	<path class="st48" d="M137.9,196.8c1,0.9,0.3,1.7-0.5,1.8c-9.7,2.1-19.1,6.3-29.5,3.5c-5.5-1.4-10.2-3.8-12.9-9.1
		c-2-3.9-4.7-6.3-9.7-6.4c-4.7-0.1-8.8-2.5-12.3-5.8c-1.2-0.3-2.1-1.2-2.5-2.3c-2.5-6.7-4.5-13.6-3.3-20.9c3.3-2.2,3.4,1.2,4,2.6
		c2,5.4,4.9,10.1,9.4,13.8c1.9,1.6,3.9,3,7.2,3.3c-2-4-4.6-6.7-7.4-9.2c-3.6-3.2-6.9-6.7-9.8-10.5c-2.5-3.3-4.1-6.7-3.9-10.9
		c-0.6-7.1,0.7-14.2,1.4-21.2c0.4-4,0.7-7.8-1.3-11.6c-1.1-1.9-1.2-4.1-0.6-6.3c2.8-5.1,7.8-6.3,12.9-7.3c3.2-0.6,4.3,1.1,3.6,4.1
		c-0.6,2.8-2.1,5.2-2.7,8c-0.2,1-0.3,2.1,0.5,2.8c1.1,0.9,2.3,0.3,3.2-0.5c3.7-3.2,7.4-6.3,6.8-12c-0.1-1.1-0.3-2.5,1.2-2.8
		c1.1-0.2,1.8,0.6,2.1,1.6c3-6.9,0.9-10.1-6.7-10.4c-2.3-0.1-4.7,0.1-7-0.1c-2.2-0.2-4.3-0.8-4.4-3.7c0.7-2.7,2.7-4.2,5.1-5.2
		c13.5-5.5,27.3-9.5,42.2-6.3c2.7,0.6,5.7,0.9,7.4,3.6c0.4,1.4-0.5,1.9-1.5,2.3c-4.1,0.9-8.1,1.4-11.3,5.1
		c-2.8,3.2-7.8,4.2-11.7,7.1c4.2-2.2,8.6-2.6,12.2-6.1c2.9-2.9,7.9-1.7,11.9,0c2.5,1.1,1.6,2.5-0.1,3.5c-1.7,1-3.6,1.1-5.5,1.6
		c1.9-0.3,3.9-0.8,5.6,0.9c0.9,2,1.4,4,0.5,6.2c-3.9,2.9-8.6,1.1-13.2,2.3c5.4-0.3,10.4-1.6,15.3-0.6c2.4,0.5,4.6,0.9,6.9,0.1
		c6.4,1.1,12.6,0.3,18.9-0.4c2,0,3.9,1,6,0.4c3-0.4,6.1-0.3,8.7-2.3c3.2,3.6,9.5,4,10.6,10c-0.2-1.9-1.3-3.6-1.5-5.5
		c-0.2-1.6-0.5-3.4,2.1-3.5c3.3,2.2,4.6,5.7,5.6,9.2c2.2,8,3,16.2,3.9,24.5c-1.3,2.1-3.4,2.1-5.3,1.7c-4.5-0.8-8.9-0.6-13.4-0.7
		c-1.8-0.6-1.7-2.3-2.1-3.7c-4.1-15.4-5.5-16.9-20.9-22.4c4.1,4.2,8.5,7.9,11.3,13.1c2,3.9,3,7.9,2.1,12
		c-2.6,11.6-11,23.7-24.6,27.1c-4.4,1.1-8.9,1.6-12.8-1.8c-1.6-1.4-3.4-1.3-5,0.2c-2.4,2.3-4.5,1.4-6.6-0.4c-2.3-2-3.9-4.3-2.4-7.4
		c1.6-3.3,3.9-6.2,6.7-8.6c1.7-1.5,3.6-1.4,5.6-0.6c1.7,0.7,3.2,1.8,4.9,2.5c5.7,2.6,11.6,0.4,13.7-5c2.2-5.7-0.6-11.7-6.4-13.6
		c-0.3-0.1-0.6-0.2-1-0.3c-1.5-0.5-4.2-0.2-4.1-2.1c0.1-2.4,2.7-2.4,4.7-2.5c2.1-0.2,4.1,0.4,6.1,0.6c0.7,0-0.4-1-0.1-0.4
		c-1.8,0.7-3.5-0.6-5.3-0.2c-7-0.2-13.9-1.3-20.9,0.5c-13.3,3.3-23.8,13.3-25.1,25.4c-0.9,8.7,0.3,17.3,4.9,25.1
		c3,5.1,7.2,8.7,13.3,9.6c4.1,0.6,6,2.8,6.5,6.9c0.6,5.2,2.6,6.8,7.8,7.1c2.5,0.1,5,0,7.5-0.4C134.5,195.8,136.3,195.4,137.9,196.8z
		"/>
	<path class="st10" d="M68.1,157c-0.2,8.4,1.2,16.4,5,23.9c1.1,5,4.3,8.9,7,13c0.3,1-0.1,1.3-1,1c-7.4-7-11.8-15.7-14-25.6
		c-1.1-4.8-2-9.6-3-14.4c1.2-3.8,0.4-7.7,0.7-11.5c0-4.3,1.9-8.3,2.1-13.1c-1.7,2.5-2.2,4.9-2.8,7.4c-1,3.7-0.6,7.4,0.1,11.1
		c0.4,2.1,0.8,4.1-0.1,6.2c-7.1-11-7-22.6-2.2-34.2c2.5-6.1,4.2-12.2,4.1-18.7c0-4.5,1.1-8.5,4.2-11.9c1-1.1,1.8-2.4,1.9-4
		c0.1-1.6,0-3.4-1.7-3.7c-2.1-0.4-2.3,1.6-2.2,3.1c0.4,5-2.5,8.2-6,10.9c-5.4,4.3-8,9.4-7,16.4c0.4,2.7,0.2,5.6-2.7,7.7
		c-2.1-3.8,1.4-8.1-1.5-11.4c-3.3-1.4-2-3.6-0.9-5.7c1.8-3.4,5-5.7,7.4-8.7c1-1.2,2.6-2.7-0.4-3.5c-1.5-0.4-1.4-0.8-0.4-1.8
		c2.1-2.1,2.1-4.9,1.5-7.5c-2.1-9.1,6.7-14.9,15.1-12.6c3.4,0.9,6.5,0.9,9.7-0.4c3.1-3.1,7.3-3.7,11-5.4c3.1-1.4,6.2-2.6,5.5-7
		c-0.3-2.2,1.5-3.1,3.4-3.6c2.6-0.6,5.2-1.2,7.8-1.2c2.1,0,4.2-0.1,6.3,0c4.7,0.4,5.4,1.7,3.3,6.2c-0.9,1.5-3.3,2.4-2.2,4.5
		c0.9,1.6,2.9,1.2,4.5,1.3c3.2,0.2,6.3-0.3,9.2-1.7c3.4-1.7,5.4-4.8,7.6-7.7c1.4-1.5,2.8-2.9,4.9-3.3c4.2-0.6,7.8,1.1,11.3,3.2
		c1.3,0.8,2.8,1.9,2.2,3.5c-0.6,1.5-2.3,0.8-3.6,0.8c-1.7-0.1-3.5-0.5-5.6,0.5c2.6,1.9,4.8,3.4,7.3,4.7c2.5,1.3,4.9,3.1,7.2-0.4
		c0.3-0.4,1.2-0.2,1.9-0.2c1.2,0.2,2.4,0.5,3.5,0.8c4.5,1.4,8.6,3.6,11.7,7.2c0.9,1.1,2.5,2.3,1.3,3.8c-1,1.3-2.4,0.1-3.6-0.3
		c-1.8-0.7-3.5-1.9-6-1.3c2.7,3.6,6,5.9,9.4,8.3c0.7,0.5,1.7,0.9,2.3,0.5c4.1-2.8,5.5,0.6,7.3,3.1c1.3,1.9,2.5,4,3.9,5.8
		c8.1,10.1,10.4,21.7,9.3,34.2c-0.2,2.9-0.2,7.4-3.4,7.4c-3.6,0-1.6-4.5-2.1-7c-0.3-1.6,0.3-3.3-1-5.3c-0.7,3.3-0.2,6.2-0.5,9.1
		c-0.2,1.8,0.6,4.2-2.3,4.7c-2.7-6.1-2.4-12.9-3.7-19.3c-1.1-5.1-2.8-9.8-6.2-13.7c-1.8-1.5-2.3-3.7-3-5.8c-0.1-1.2-0.1-2.5,1.1-3.1
		c1.2-0.5,2.2,0.6,2.9,1.5c3,3.7,6,7.4,8.4,11.7c-3.9-10.5-12.1-16.9-20.8-22.8c-1.7-1.2-3.8-1.3-5.8-1.2c-5,0.3-9.5-1.1-13.8-3.3
		c-4.3-2.2-8.9-3.6-13.8-4.1c-1-0.1-2.6-0.8-2.8,0.1c-1.4,5.4-4.8,1.6-7.2,1.8c1.2,1.1,3.1,1.8,2.6,4.1c0,0.1-0.2,0.2-0.4,0.2
		c-0.2,0-0.3,0-0.5,0c-12.8-6.1-25.8-3.8-38.6-0.2c-5.7,1.6-11.6,2.9-15.5,8.1c-2.4,6.6-5.5,12.9-8.7,19.1c-0.4,3.1-0.2,5.9,1.9,8.5
		c2.1,2.7,1,5.8,0.7,8.7c-0.9,7.9-1.9,15.8-1.9,23.8C66.4,151,69,154,68.1,157z"/>
	<path class="st10" d="M138,122.9c-1.3,0.2-2.7,0.2-4,1.6c4.1,0.3,7.9,1.3,10.2,4.7c2.2,3.2,3.3,6.8,2,10.8
		c-2.3,7.3-9.9,10.2-16.9,6.3c-2.3-1.3-4.7-4.3-7.5-2.3c-3.6,2.4-6.3,6.1-7.6,10.2c-0.9,2.9,2.5,3.9,4.2,5.6
		c1.9,1.8,2.4-0.2,3.3-1.2c1.9-2.1,4.5-2.4,6.1-0.5c3.8,4.6,8.3,3.3,12.7,2.1c13-3.7,19.7-13.6,23.2-25.8c1.8-6.3-1.7-11.6-5.5-16.4
		c-3.1-3.9-6.9-7.2-11-10.3c14.9-0.3,25.2,10.2,26.8,27.2c2.1,3.2,1.2,6.5,0.5,9.8c-2.6,12.1-9.1,21.6-19.5,28.4
		c-1.7,1.1-3.4,2.1-5.4,2.6c-1.1,0.3-2.4,0.4-3.3-0.5c-1.2-1.2,0.2-2.1,0.7-3c0.6-1,1.3-2,1.4-3.1c0.4-4.4,2.9-7.3,6.5-9.5
		c3.5-2.3,6.5-5.1,8.6-8.8c-2.2,3.7-5.3,6.6-9,8.9c-1.7,1.4-3.6,2.4-5.7,3.1c-2.3,0.7-4,1.7-4.8,4.4c-0.9,3-4.1,3.6-7,3.9
		c-4,0.4-7.9,0.1-11.6-0.4c-0.5,0.5-0.6,0.8-0.5,1.2c0.2,1.7,2.7,3.6,0.5,4.8c-2.2,1.2-3.9-1-5.3-2.7c-2.1-2.8-2.5-6.1-2.9-9.6
		c-1.9,0-1.5,3.3-3.6,2.5c-1.7-0.7-2.4-2.3-3.1-3.8c-4.1-8.4-1.3-19.5,6.2-25.1c4.4-3.3,7.4-2.9,14.1,2.1c0.2-2.3-0.6-4.9,1.8-6.2
		c1.8-0.9,3.2,0.2,4.5,1.2c-1-1-2.1-2.1-3.6-2c-6.2,0.5-12.7-0.7-18.6,2.7c-1.3,0.8-2.8,1.2-4.3,1.3c-6.8,0.4-10,4.7-11,10.9
		c-1.6,9.7,0.2,18.9,5.4,27.3c1.9,3.1,4.9,4.4,8.5,4.3c4.1-0.1,7.2,1,7.6,5.8c0.2,2.9,2.5,3.2,4.8,3.1c5.9-0.1,11.5-1.8,17.1-3.3
		c2.1-0.5,4-1.8,6.3-0.9c1.2,3.5-2.6,3.3-3.7,5.1c-0.5,0.4,0.4,0.7-0.1,0.3c-0.1-0.1,0-0.3,0.2-0.4c2.2-1.3,4.2-3.3,7.1-1.5
		c-3.5,5.6-9.7,6.6-15.2,8.9c-4.4,0.4-8.8,1.7-13.3,1.3c-6-0.5-8.7-3.1-8.7-9c0-2.4-0.4-4.5-3.1-4.8c-12.6-1.2-17.8-9.9-20.3-20.8
		c-1.8-8-2.7-16.2,1.2-23.9c6.4-13,17.7-18.2,31.4-19.5c4.7-0.4,9.3,0.4,13.9,1C139.5,122.2,138.6,122.4,138,122.9z"/>
	<path class="st49" d="M155.9,159.8c-3.3,2.9-6.4,5.8-6.2,10.7c0.1,2-2.1,2.6-3.2,4.3c11.2-1,23.3-14.7,26.7-29.7
		c2.2-1.4,3,0.6,3.9,1.8c2.5,3.3,5.1,6.5,7.6,9.8c5.1,6.6,6.2,13.7,2.5,21.3c-0.7,1.7-1.9,3-3.4,4c-6.6,6.3-15.3,9.1-22.8,13.8
		c-4.1,2.5-8.1,4.9-6.6,10.7c0.2,0.7-0.7,1.1-1.2,1.4c-2.4,0.5-4.9,1.1-7-1c-2.4-0.9-2.7-2-1.2-4.2c3.6-5.1,7.6-9.9,10.3-15.6
		c0.6-3,3.4-4.9,4-7.9c0.2-1,0.6-2.1-0.4-2.7c-1-0.6-1.8,0.2-2.6,0.8c-2.8,2-3.5,5.6-6.1,7.8c-7.9,1.9-15.5,4.8-23.8,5.2
		c-3.9,0.2-6.6-0.4-6.3-5.2c0.2-3.4-2.2-4.3-5-3.9c-6.2,1-9.6-2.3-12.2-7.3c-4.5-8.9-6-18.2-3.7-28c1.4-6.1,4.3-8.7,10.5-9.6
		c1.6-0.2,3.5-0.4,4.8-1.2c6.1-3.9,12.9-2.6,19.4-2.8c1.4,0,3,0.7,4.1,1.5c1.5,1.1,4.3,2.6,2.6,4.6c-1.9,2.2-2.6-1.2-3.9-2.1
		c-1-0.7-1.8-2.2-3.4-1.3c-1.6,0.9-1.4,2.4-0.9,3.9c0.5,1.2,1.4,2.3,1,4c-2.9,0.1-4.3-2-5.9-3.8c-2.3-2.5-4.9-2.5-7.7-1.1
		c-10.1,5-12.9,20.2-5.3,28.7c0.1-0.5,0.3-0.9,0.3-1.4c0-1.8,0.2-3.7,2.5-3.5c1.9,0.2,1.8,2.1,1.7,3.6c-0.3,3.5,0.5,6.6,2.9,9.2
		c0.9,1,1.9,1.8,4,1.9c-1.3-2.3-2.5-4.3-3.9-6.6c1.8-0.9,3.3-0.5,4.9-0.1c3.8,0.9,7.7,1.3,11.4,0.4c1.9-0.5,6.5,0.4,4.6-4.7
		c-0.4-1.1,1.7-1.8,2.9-2.3c3.1-1.3,6.1-2.5,9.2-3.8C156,158.5,156.1,159,155.9,159.8z"/>
	<path class="st50" d="M183.2,181.1c0.9-1,1.9-2,2.8-3.1c3.2-4.1,5.7-8.9,11.3-10.5c2.1,1.2,1.2,2.9,0.5,4.3
		c-1.4,2.8-2.9,5.6-5.9,7.1c-2.8,3.7-5.4,7.5-8.4,11c-9,10.6-20.8,16.6-34.1,20c-4.3,1.1-8.6,2-12.6,4.2c3.1,0.7,6.2-1.1,9.2,0.5
		c0.1,1.2-2.1,2.5-0.5,3.4c1.6,0.9,2.3-1.4,3.5-2.1c1.1,2.9,3,3.2,5.7,2c14.2-5.8,27.7-12.9,40.7-21c0.5-0.3,1.1-0.6,2-1.1
		c-6,9.4-22.6,20.8-32.9,22.4c-9.2,1.4-17.7,5.7-27.1,6.3c-3.5,0.2-6.9,0.4-11.4,0.4c5.3-2.9,10.8-3.3,15.3-6.4
		c-13.1,0.9-25.6-0.3-37.8-3.8c0-0.6,0.1-1.1,0.1-1.7c3.7,0,7.3-0.1,10.9,0c6.3,0.3,12.3-0.7,17.9-3.5c4.3-2.1,8.7-3.1,13.5-2.8
		c2.6,0.3,5.3,0.7,7.9,0.1c5.9-3.9,12-7.7,16.8-13C174.8,189.5,179,185.3,183.2,181.1z"/>
	<path class="st1" d="M136.1,269.9c-2.1-0.1-4.2,0.2-6.1-1c-5.4,0.6-7.1-3.9-9.4-7.3c-2-3-2.8-6.7-4.3-10c-2.2-4.9-4.5-9.7-9.5-12.4
		c-1.2-0.7-3.3-1.4-2.6-3.1c0.7-1.7,2.8-1.4,4.5-1.2c1.2,0.1,2.3,0.4,2.4,1.9c-0.9,2.7,1.9,2.5,3,3.4c1.8,1.6,4.2,2.6,6.3,3.9
		c0.2,2.2,1,3.6,3.6,3.4c1.8-0.2,3.5,0.1,5.2,0.4c9.8,2.2,19.5,3.6,29.2,0c1.7-0.6,3.5-1.1,4.4-2.9c2.7,6.4-1.9,16.8-8.9,18.7
		c-5.4,1.5-10.9,2.4-15.5,5.9C137.9,270,136.9,269.8,136.1,269.9z"/>
	<path class="st50" d="M111.1,236.8c-1.9-1.6-4.1-0.8-6.5-0.5c9.6,3.8,12,12.7,15.3,20.9c2.1,5,4.7,9.5,10.1,11.6
		c-4.5,1.7-8.3,0.9-11.2-3c-1.4-3.6-4.5-1.5-6.8-1.9c-2.9-0.4-4.9-2.5-7.6-4.2c1.9-1.6,6.4,0.5,5.7-4.2c-0.4-2.6-0.8-5.1-1.8-7.5
		c-1.4-0.2-2.2-1-2.3-2.5c-8.1-2.2-15.6-5.3-21.2-13.2c5,1.3,8.9,4.8,14.2,2.1c-13.8-7.2-23.3-19.3-36.5-26.5
		c-1.8-1-1.1-2.6-1.3-3.9c6.8,4.4,13.6,8.8,20.4,13.3c10.1,6.6,21.5,10.3,32.6,14.8c0.8,1.9,1.7,3.2,4,2c4.1,3,8.8,4.5,13.8,4.8
		c1.6,0.1,2.9,0.5,4.2,1.2c0.7,0.4,1.5,0.9,1.2,1.9c-0.3,1.1-1.3,0.8-2.1,0.8c-1.1,0-2.3-0.1-3.4-0.4
		C125,240.7,117.8,239.6,111.1,236.8z"/>
	<path class="st1" d="M191.9,178.9c1.4-2,2.9-4,4-6.1c0.7-1.4,2.6-2.8,1.1-4.8c-1.4-2,0.2-3.4,1.1-4.8c3.8-5.8,8.4-11,13.3-15.9
		c2.7-2.6,5.4-5.3,7.5-8.5c1.7,0,1.8,1,1.4,2.1c2.5-3.7,2.6-8.9,6.3-12.2c0.8,0.1,1.3,0.5,1.8,1.1c1.1,2.5-0.3,4.4-1.5,6.4
		c-0.9,1.6-1.7,3.2-2.3,5.2c1.2-1.3,2.1-2.4,3.7-2.4c0.8,3.3-1.8,5.4-2.9,8c-1.6,3.8-3.6,7.4-5.4,11c-4.9,4.8-10.2,9.4-11.7,16.7
		c-0.2,1-0.7,2.3-2.2,2.3C201.4,177.8,197.1,182,191.9,178.9z"/>
	<path class="st51" d="M156,233c-3-0.5-3.9,1.4-4.2,3.8c-1.3-0.9-2.4,0.1-3.6,0.3c-4.1-3.5-9.4-4.6-14.2-6.7
		c-1.1-0.5-3.2-0.2-3.1-1.9c0.1-2.1,2.2-1.6,3.6-1.5c9.2,0.4,18-1.3,26.8-3.8c7.6-2.2,14.6-5.3,21.3-9.2c1.2-0.7,2.4-1.6,4.6-1.6
		c-2.5,4.3-6.6,6.9-7.1,11.5C171.4,225.2,163.2,227.8,156,233z"/>
	<path class="st1" d="M221.9,201.6c-0.7-0.3-1.4-0.5-2-0.8c-0.2-2.3,3.8-4.8,1.1-6.4c-2.3-1.4-3.9,2.3-5.7,3.8
		c-2.1,1.8-4.1,3.8-6.1,5.7c-2.4,0-4.9,0-8.1,0c3-5.9,6.8-10.1,11-14.1c1.8-1.2,3.8-1.9,4.6-4.5c0.7-2.1,2.6-4,5.5-3.4
		c2.4-0.5,4.1,0.9,6,2c1.1,1.2,1.6,2.8,2.8,3.9c0.3,0,0.7,0,1,0c0.6,2.9-1.7,4.5-3.2,6.1C226.4,196.6,224.8,199.7,221.9,201.6z"/>
	<path class="st52" d="M74.1,231.8c-4.4-5.3-10-9.3-15.2-13.8c-0.7,0.2-1-0.2-1-0.9c-3.9-5.4-9.7-9.4-12.2-15.9
		c-0.7-1.8-2.2-3.4-1.2-6c2.4,3.1,6.2,3.6,8.9,5.9c-0.1,3.9,1.8,6.4,5.5,7.5c4.8,7.8,10.9,14.7,16.3,22c0.7,0.9,2.5,1.6,1,3.2
		C74.9,233.7,74.2,233,74.1,231.8z"/>
	<path class="st53" d="M221.9,201.6c2.1-5.4,7.3-8.7,10-13.7c1-1.6,2-3.2,3-4.9c1.7-0.7,3.4-1.5,5.2-2.2c0.7,0.5,1,1.2,0.9,2
		c-0.6,2-1.9,3.9-1.5,6.1c-1.1,3.5-3.1,6.5-5.3,9.4c-0.2,0.4-0.5,0.8-0.8,1.1c-2.3,2.3-4,5.2-6.4,7.5c-1.4,1.3-2.4,3.3-4.8,2.9
		c0-1.6-1.5-3.1,1.5-4.4C225.7,204.5,223.3,202.6,221.9,201.6z"/>
	<path class="st54" d="M254,162.9c-2.3,0.9-4.7,1.3-7.2,0.9c-0.6-1.3-1.1-2.6-1.7-3.8c-1.4-0.4-2.7-0.9-3.4-2.2
		c2.4-3.8-0.3-8,1.2-11.9c0.1-4.8-0.1-9.7,2.4-15c1.4,5.2,2.5,9.6,3.6,14c-2,2.9-2.9,5.4,1.9,6.1C251.6,155,254.1,158.6,254,162.9z"
		/>
	<path class="st55" d="M242.9,145.9c0.4,2.9,0.5,5.8,1.4,8.5c1,2.8-1.6,2.1-2.4,3.2c-0.3,1.6-1.3,2-2.7,1.8c-3.6-2.8-2.9-5.9,0.5-10
		c-3.6,1.1-5.7,0.5-6.7-2.2c-0.1-0.3-0.1-0.6-0.1-0.9c1.9-3,0.6-7.6,4.9-9.4C241.5,138.8,240.5,143.3,242.9,145.9z"/>
	<path class="st56" d="M206.1,177c2.3-7.1,5.2-13.7,11.6-18.2c0.7-0.5,1.1-1.9,2.3-0.8c-2,9.2-5.8,17.3-14.8,22.4
		C205.6,179.1,205.9,178,206.1,177z"/>
	<path class="st57" d="M222.1,182c-1.5,2.2-6.5,1.9-4.7,6.8c0.3,0.8-3.4,1.1-5.4,1.1c-2.3-4.3,1.2-6,3.7-7.9c3.9-3,7.8-5.9,7.4-12.1
		c2.9,1.7,5.6,1.5,8.2,0.3c0,0,0.2,0.2,0.2,0.3c0,0.1,0,0.3-0.1,0.5c-0.2,1.2-0.5,2.4-1.7,3C227.3,176.7,224.7,179.3,222.1,182z"/>
	<path class="st58" d="M150,184.9c0.8-3.9,3.1-6.8,5.9-9.3c1.1-1,2.3-2.1,3.9-1c1.4,1,1.4,2.5,0.9,4c-1.1,3.3-2.5,6.4-5.5,8.4
		c-0.7,0.3-1.3,0.6-2,0.9c-3-0.3-5.4,2.6-8.7,1.9C145.7,187.3,148.7,187,150,184.9z"/>
	<path class="st59" d="M27.2,187.5c0.3-0.7,0.5-1.4,0.8-2.2c3.7-4,6.4-3.5,9.1,1.6c2.8,4.1-0.8,5.5-3.2,7.3c-0.5,0-1,0-1.5,0
		C26.2,194,25.3,192.9,27.2,187.5z"/>
	<path class="st60" d="M233,147.3c1.9,0,3.1,4.2,5.9,0.8c1.1-1.3,2.1,0.5,1.4,1.6c-1.9,3.1-3.1,6.1-1.5,9.7
		c-0.1,0.1-0.2,0.3-0.3,0.4c-1.6-0.4-3.6,2.6-4.6,0.1c-0.7-1.7-4.9-3.1-1.2-5.8c0.8-0.6,0.9-1.3-0.3-2.2
		C230.6,150.3,231.4,148.6,233,147.3z"/>
	<path class="st61" d="M37.1,186.9c-2.6-2.9-5.3-5-9-1.6c0.1-3.4-1.7-4.7-4.9-4.5c0.5-2.6,2.3-4.9,2.1-7.8c1.9,1.6,3.8,3.3,5.7,4.9
		c1.5,1.7,3.8,2.5,5.1,4.4C36.4,183.9,36.7,185.4,37.1,186.9z"/>
	<path class="st62" d="M129.3,247.9c-2.7,2.1-5.9,0.6-8.7,0.5c-2.8-0.2-1.8-2.7-0.2-4.3c1.7-0.4,3.5-1,5.2-1
		C128.8,243.1,130.7,244.3,129.3,247.9z"/>
	<path class="st63" d="M58.9,208.6c-6,0-7.5-2.1-5.5-7.5c2.6-0.8,5-0.7,6.7,1.8C60.2,204.9,60.7,207,58.9,208.6z"/>
	<path class="st16" d="M228.3,139c-1.5,1.7-3.1,3.4-5.1,5.5c-0.4-6.1,4.4-9.6,4.8-14.5c-0.3-3.8-0.3-3.8,1.8-4.6
		c0.3,3.1,1.4,6.1,1,9.3C229.9,136.1,229.1,137.6,228.3,139z"/>
	<path class="st64" d="M237.8,136.9c-2.1,2.9-2.4,6.7-4.9,9.4c-0.4-4.3,1.8-8.1,2.1-12.3c1.9-2.8,0.4-6.8,3.6-9.6
		C239.6,128.9,238.8,132.9,237.8,136.9z"/>
	<path class="st14" d="M25.1,170.9c-0.8-1-1.7-2-2.3-3.1c-2-3.5-0.6-5.1,3.2-5.1C29.4,166.6,29.2,168.4,25.1,170.9z"/>
	<path class="st65" d="M63,230.9c0.3,0.1,0.6,0.2,0.9,0.3c2.3,0.8,3.4,2.4,3.2,4.8c-0.1,1.2-0.5,2.6-1.8,2.4
		c-2.2-0.2-4.1-1.1-4.6-3.6C60.7,233.1,61.3,231.7,63,230.9z"/>
	<path class="st66" d="M46.1,187.6c0.7-2.4,1.6-0.5,2.2,0c3.8,3.1,5.2,7.9,7.9,11.9c-4.5-1.1-5.1-5.8-7.8-8.5
		C46.7,190.5,46.2,189.2,46.1,187.6z"/>
	<path class="st67" d="M46.1,187.6c1.3,0.8,2,2,2.3,3.4c-0.4,1.9-1.4,3.1-3.4,2.4c-1.7-0.6-3-1.7-2.7-3.7
		C42.6,187.6,44.2,187.4,46.1,187.6z"/>
	<path class="st68" d="M36.1,182.3c-3.1,0.2-5-1-5.1-4.4c1.7-1.6,3.6-1.7,5.2-0.3C37.9,179.1,37.5,180.8,36.1,182.3z"/>
	<path class="st69" d="M149,215.9c0,0.3-0.1,0.6-0.1,1c-0.2,2-1.2,3.3-3.4,3.2c-1.2,0-2.4-0.2-2.4-1.7c-0.1-2,0.9-3.4,3-3.8
		C147,215.1,148,215.5,149,215.9z"/>
	<path class="st23" d="M190.2,223.7c-2.1,2.1-4.2,1.8-6.3,0.1c0.7-2.1,1.3-4.3,4-4.2C190.6,219.7,190.1,221.9,190.2,223.7z"/>
	<path class="st57" d="M238.5,159.7c0.2-0.1,0.3-0.2,0.3-0.4c1-0.5,2.1-1.1,3.1-1.6c1.6,0,3.2,0.1,3.2,2.3
		C242.9,161.7,240.5,165.2,238.5,159.7z"/>
	<path class="st70" d="M21.9,153.7c-1.7,0.6-3.6,1.6-4.7-0.8c-0.4-0.8-0.1-2,0.3-2.8c0.4-1,1.5-1.1,2.6-0.9c2.3,0.4,2.1,2.2,2.1,3.9
		C22,153.2,21.9,153.4,21.9,153.7z"/>
	<path class="st71" d="M118.1,234.1c-0.4,1.4-0.9,3.2-2.7,2.2c-1.4-0.7-2.7-2.3-1.3-4.3C116,231.6,117.3,232.4,118.1,234.1z"/>
	<path class="st72" d="M79,194.9c0.3-0.3,0.7-0.7,1-1c2.2,2,4.4,4,6.6,6C83.3,199.3,80.7,197.8,79,194.9z"/>
	<path class="st73" d="M57.9,217.1c0.3,0.3,0.7,0.6,1,0.9c0.5,1.5-0.3,2.7-1.1,3.9c-1.7,0.1-2.8-0.7-2.9-2.5
		C54.9,217.4,56.3,217.1,57.9,217.1z"/>
	<path class="st36" d="M229.9,174c0-1.3,0.6-2.3,1.7-3c0.9,1.3,3.7,1.9,2.1,4C232.4,176.8,231,175.3,229.9,174z"/>
	<path class="st74" d="M230.9,187.9c-2.7,0-3.2-1.6-2.8-3.9C230.9,184,231.6,185.4,230.9,187.9z"/>
	<path class="st1" d="M117,58c0.5-1.4,2.9-2.3,1.6-4.3c-1-1.5-2.8-0.7-4.2-0.8c-2.2-0.1-4.3,0-6.5,0c-1.8-1.1-4.9-0.3-5.2-3.6
		c3.9-4.1,9.2-3.6,13.1-4.3c-5-0.4-11.1-1.1-17.1,0.2c-2.6-0.5-5-0.5-6.9,1.8c-1.3,0.3-2.6,0.7-3.8,1.1c-3.4,0.4-6.3,3.3-10.1,2
		c1.8-3.9,7-3.4,9-7.1c-0.2-0.7-0.2-1.3,0.2-1.9c2.3-3.2,1-5.4-2.1-7c1.5-2.5,4.2-2.6,6.6-3.3c4.7-1.5,9.8-1.2,14.6-2.4
		c2.1-0.5,3.4,0.7,4.2,2.6c0.9,1.6,1.5,4.4,3.4,0.6c0.5-1,1.2-1.9,2.3-2.3c5.4-0.9,10.4,0.3,14.9,1.8c-2.7-1.9-8-2.3-6.9-8.3
		c2.8-1.2,4.9-0.3,6.5,2.1c0.5,2.1,1.9,2.8,4,2.4c11,3.6,21.6,8,31.6,13.6c5.4,2.8,10.8,5.7,16.5,7.9c8.4,3.2,15.1,8.7,21.3,14.9
		c0.4,0.2,0.8,0.5,1.1,0.8c1.9,1.8,4.5,3,6.1,5.1c1.1,1.5,2.3,0.7,3.5,0.7c1,0.1,1.8,0.6,2.6,1.1c1.1,0.9,2.6,1.5,2.7,3.2
		c-0.7,1.6-2.3,1.4-3.6,1.7c-3,5.4-1.8,11,2.9,13.4c3.2,5.5,2.4,9.2-2.5,12.7c-1.3,0.3-2.4-0.2-3-1.3c-2.7-4.9-6.7-9-9.5-13.8
		C200.3,70.5,187,54,170,50.4c-1-0.2-2-0.3-2.9-0.8c-4.4-4.1-4.7-4.1-8.7-0.4c-1.7,1.6,0.2,2.2,0.9,3c2.6,2.7,5.4,5.2,7.9,8.1
		c1.8,2,1.9,3.8-1.2,4.6c-1-0.3-2.1-0.6-3.1-0.9c-2.4-1.2-5.4-0.8-7.7-2.5c-1.5-1.1-3.6-1.8-3.3-4.3c1.1,0.2,2.1,0.3,4.4,0.7
		c-4.7-4.2-9.2-5.9-14.4-6c-0.3-1.2-0.4-2.6-1.4-3.6c-1.8-1.7-4-3-6-0.9c-1.9,1.9-0.1,3.6,1.3,5c0.8,0.8,1.9,1.4,2.1,2.6
		c-1.6,3.3-3.8,6-7.1,7.8C125.7,62.7,121.1,61,117,58z"/>
	<path class="st75" d="M102.9,50c1.7,1,3.3,2,5,2.9c-2.1,0.3-4.2,0.7-6.3,1c-2.4,0.4-4.2,0.8-2.3,4.1c1.4,2.6-1.4,3.8-3.1,4.8
		c-4.8,2.6-9.8,4.6-15.1,6.1c-2-1.9-2.2-3.8,0.7-4.7c6.7-2,10.6-7.5,15.3-12c0.1-1.1,0.9-1.7,1.8-2.2
		C100.2,49.3,101.5,48.8,102.9,50z"/>
	<path class="st76" d="M19,95c3.5-8.2,10.5-12.9,17.2-18.1c1.1-0.4,1.9-0.3,2,1.1c-5,5.7-9.1,12-13.2,18.3C23.2,94.8,21.1,95,19,95z
		"/>
	<path class="st57" d="M38.2,77.9c-0.7-0.4-1.3-0.7-2-1.1c-1.5-1.6-2.6-3.4-2.3-5.8c4-1.6,7.1-5.9,12.2-3.9c0.5,2.2,0.4,4.3-2.4,5
		c-1.4,0.3-1.8,1.2-1.7,2.4C42.1,77.3,40.2,77.8,38.2,77.9z"/>
	<path class="st77" d="M51.1,67.2c-1.4-1.1-1.4-2.2,0-3.3c1.3-1.2,2.6-2.3,3.6-3.7c3-1.6,5-4.8,8.5-5.9
		C62.7,60.7,61.1,62.4,51.1,67.2z"/>
	<path class="st78" d="M98.8,51c-0.6,0.4-1.2,0.8-1.8,1.2c-4.1,0.7-4.2-2.7-5.1-5.2c0.1-4.8,2.8-4.1,5.8-2.7
		C101.4,46,101.4,48.3,98.8,51z"/>
	<path class="st23" d="M86.1,34.2c4.1-0.7,4.5,1.7,3.5,4.7c-0.5,1.5-1.8,2.7-2.7,4c-1.3-0.2-2.5-0.5-3.8-0.7c-2.3-2.7,1-4.6,1.1-7
		C84.5,34.2,85.5,34.6,86.1,34.2z"/>
	<path class="st79" d="M78,50c3.4-0.6,6.5-2.6,10.1-2c-5.3,2.6-10.6,5.3-17.2,8.5C73.2,52.9,75.3,51.2,78,50z"/>
	<path class="st34" d="M50.1,61.1c-3.5,1.1-5.4,0.1-4.8-3.9c1.1-0.7,2.2-1.2,3.6-0.8C50.4,57.6,50.6,59.2,50.1,61.1z"/>
	<path class="st80" d="M54.7,60.2c0.4,2.8-0.4,4.4-3.6,3.7c-0.2-0.4-0.4-0.8-0.6-1.1c-0.2-0.6-0.3-1.2-0.5-1.7
		C51.4,59.8,52.8,58.3,54.7,60.2z"/>
	<path class="st81" d="M78,56.6c1.1,0,2,0.3,2.1,1.6c0.1,1.5-0.3,2.7-2,2.9c-1.2,0.2-1.9-0.5-2.1-1.6C75.8,58,76.5,57,78,56.6z"/>
	<path class="st82" d="M15.1,168.3c-1.8-2.1-5.5-4.2-0.1-6.5c2.1,0.4,3.8,1.4,3.8,3.7C18.9,167.9,17.1,168.3,15.1,168.3z"/>
	<path class="st83" d="M222.2,209.8c4.4-2.9,6.6-8,10.9-11c2.7,0.4,4.3,1.3,2.1,4.1c-3.4,3.1-3.6,8.3-7.4,11
		C227.6,210.3,222.4,213.3,222.2,209.8z"/>
	<path class="st84" d="M235.1,202.9c1.8-2.6-1-2.9-2.1-4.1c0.1-0.2,0.1-0.4,0.1-0.6c3.1-2.8,5-0.7,6.8,1.6c1.6,2.4,1.8,4.5-0.9,6.2
		C237,205.9,235.1,205.7,235.1,202.9z"/>
	<path class="st78" d="M235.9,216.9c1.9,4.8,1.1,5.7-4.9,5.8c-1.5-1.4-2-3.1-0.9-4.8C231.6,215.6,233.9,216.4,235.9,216.9z"/>
	<path class="st85" d="M224.8,231c1.8,2.6,1.6,5-1,7.1c-3.6,0.4-4-2.1-3.8-4.7C220.3,230.2,222.7,230.8,224.8,231z"/>
	<path class="st86" d="M105.9,245.5c1.1,0.5,2,1.2,2.3,2.5c-0.5,1.4,0.5,3.6-2.1,4c-1.5-0.1-3.7,2-4.3-1.3
		C100.7,247,102.1,245.3,105.9,245.5z"/>
	<path class="st87" d="M112,263.9c1.8-1.5,3.7-2.9,6.1-1.9c1.8,0.7,1,2.4,0.7,3.8C114.1,269.1,112.7,268.7,112,263.9z"/>
	<path class="st57" d="M87.8,246.2c-1.4-0.3-3,0-4.1-1.4c0.2-2.2,0.2-4.4,3-5c1.3-0.2,2.3,0.4,2.8,1.6
		C90.5,243.5,90.3,245.3,87.8,246.2z"/>
	<path class="st14" d="M74.1,231.8c0.7,0.7,1.4,1.4,2.1,2.1c-0.1,2,0.1,4.3-2.9,4.1c-2.4-0.1-3.6-1.6-3.6-3.9
		C69.7,230.8,72.3,232,74.1,231.8z"/>
	<path class="st88" d="M101.9,250.7c1.1,1.6,2.8,1,4.3,1.3c-1,0.4-2.4,0.4-3,1.2c-1.4,1.6-2.9,3.4-4.3,0.7S100.8,251.7,101.9,250.7z
		"/>
	<path class="st89" d="M44.1,204.9c0.1,2,0.4,4.1-2,5.1c-1.1,0.5-2.3,0.6-3.2-0.3c-1.2-1.2-1.2-2.9-0.7-4.2
		C39.6,200.8,42,203.8,44.1,204.9C44.1,204.9,44.1,204.9,44.1,204.9z"/>
	<path class="st90" d="M27.8,202.5c-0.1,1.2-0.6,2.2-2,2.3c-1.9,0.1-3.1-1-3.6-2.8c-0.3-1.4,0.5-2.2,1.9-2.3
		C26,199.6,27.2,200.6,27.8,202.5z"/>
	<path class="st91" d="M204,64.9c-10.2-11.8-25.2-15.6-38.1-23c-0.3-0.5-0.2-0.9,0.2-1.2c2.4-1.1,5.9-1.8,1.5-5
		c-3.1-3.1-7-4.8-11.2-6.1c-0.2-0.2-0.3-0.3-0.5-0.5c-1-2.9,1.3-2,2.4-1.9C171,29,183,32.1,192.2,41.8c-0.2,0.5-0.5,0.8-0.9,1
		c-2.1,0.6-4.2,0.8-6.3,0.8c-2-1-4.4-1.4-6.4-2.5c1.8,1.2,4.2,1.1,5.8,2.7c1.1,3.3,4.2,2.5,6.5,3.3c5.7,3.5,11.2,7.4,15.2,12.9
		C204.8,61.4,205,63.4,204,64.9z"/>
	<path class="st91" d="M166,41.1c0,0.3,0,0.5,0,0.8c-10.1-5.8-21.1-9.5-31.8-14c-0.4-2.1,0.7-2.8,2.5-2.9c0.9,1.1,2.1,1.1,3.3,1.2
		c1.7,0.3,3.5,0.1,5.1,1c3.5,1.3,7.2,1.6,10.9,2l-0.1,0c4,1.2,8,2.4,11,5.6C167.9,37,166.8,39,166,41.1z"/>
	<path class="st12" d="M238.7,93.2c2.2,7.4,3.4,14.7-1.3,21.7c-1.5,2.2,2.1,4.4-0.6,6.7c-2-0.7-1.9-3.1-3.1-4.4
		c-1.9-1-3.3-2.5-4.5-4.2c-0.8-1.5-1.4-3.1-0.7-4.8c0.3-0.4,0.6-0.7,1-1c4.2-0.7,5.3-2.9,3.3-6.8c-0.9-1.8-1.2-3.8,1-5.2
		c1.5-0.6,2.3-2.1,3.9-2.6C238.2,92.6,238.5,92.8,238.7,93.2z"/>
	<path class="st92" d="M238.7,93.2c-0.3,0-0.6-0.1-0.8-0.2c-4.9-4.2-8-10.1-13.2-14c-1.8-1.4-4-2.5-4.9-4.8c-1-0.7-1.9-1.3-2.9-2
		c0.1-1.4-1.1-2.9,0.1-4.3C227.7,73.5,235.6,81.3,238.7,93.2z"/>
	<path class="st93" d="M192.2,41.8c8.2,4.6,17,8.3,21.4,17.5c-6.9-5-14.5-8.6-21.6-13.2c-1-1.2-0.7-2.5-0.3-3.8
		C191.9,42.1,192.1,41.9,192.2,41.8z"/>
	<path class="st94" d="M215.1,71c-5,0.8-7.1-3.4-10.3-5.8c0.9-1.5,2.6-2.1,4-3c2.4,1.6,4.7,3.2,7.1,4.8
		C215.3,68.3,216.1,69.8,215.1,71z"/>
	<path class="st89" d="M191.8,42.2c1.1,1.2,1,2.5,0.3,3.8c-0.4,0.3-0.8,0.7-1.1,1c-3.3,1.2-6.8,2.8-7.1-3c-0.3-1,0.1-1.3,1.1-1.2
		C187.1,41.7,189.5,42,191.8,42.2z"/>
	<path class="st65" d="M136.7,25c-0.8,1-1.7,2-2.5,2.9c-2.3,1.4-3.9,1.3-3.9-1.9c0.4-1.1,0.3-2.4,1.6-3c0.2-0.2,0.5-0.4,0.7-0.7
		c1.3-1.6,3.1-3.4,5-2.1C139.8,21.7,136.9,23.3,136.7,25z"/>
	<path class="st95" d="M230.1,112.9c1.6,1.1,2.8,2.4,3.6,4.2c-1.3,2.8-2.6,5.5-3.9,8.3c-0.6,1.5-1.2,3.1-1.8,4.6
		c-0.4-0.3-0.7-0.6-1.1-1C225.9,123.2,227.6,118,230.1,112.9z"/>
	<path class="st96" d="M253.8,128.1c-0.7,1.8-1,4.1-3.7,3.9c-1.9-0.1-3-1.6-2.9-3.4c0.1-2.3,1.6-3.6,4-3.6
		C253.1,125,253.5,126.5,253.8,128.1z"/>
	<path class="st97" d="M250.9,151c-2.3,0.8-4.9,1.2-5.8-1.4c-0.9-2.8,2.1-3.4,3.9-4.7C252,146.2,252.3,148.3,250.9,151z"/>
	<path class="st98" d="M145.1,27.1c-2.1,1.6-3.8,1.4-5.1-1c0.6-2.1,0.8-5.1,3.9-4.3C146.8,22.6,145.6,25.1,145.1,27.1z"/>
	<path class="st99" d="M131.9,23c-0.5,1-1.1,2-1.6,3c-1-3-3.5-2.9-6-2.8c-1.8,1.1-3.2,0.3-4.4-1.1c0.8-1.5,2.1-1.9,3.6-2
		c0.8,0,1.5-0.1,2.2-0.1C127.7,20.9,129.8,22,131.9,23z"/>
	<path class="st28" d="M244.5,108.1c-1.8,0-2.1-1.2-2-2.4c0.1-2.2,1.1-3.8,3.5-4c1.7-0.1,2.5,1,2.2,2.5
		C247.9,106.3,246.4,107.6,244.5,108.1z"/>
	<path class="st46" d="M232.9,70.7c-0.4,1.2-0.7,2.4-2.2,2.3c-1.8-0.2-3.2-1.2-3.2-3.1c0-1.3,1-2,2.4-1.9
		C231.6,68.1,232.6,69.1,232.9,70.7z"/>
	<path class="st100" d="M208.8,62.2c0.1,2.9-2,2.9-4,3c-0.3-0.1-0.5-0.2-0.8-0.4c-0.2-2-1.6-4.5,2.1-4.8
		C207.1,60.8,207.9,61.5,208.8,62.2z"/>
	<path class="st101" d="M246.9,88.7c-0.3,1.4-1.3,2.2-2.4,2.1c-1.7-0.2-3.1-1.3-3.4-3.1c-0.2-1.3,0.8-1.8,1.9-1.5
		C244.5,86.6,246.2,86.8,246.9,88.7z"/>
	<path class="st102" d="M222.8,49.2c1.4,0.4,2.2,1.3,2.1,2.8c-0.1,1.3-1,2.1-2.3,2c-1.7-0.1-2-1.7-2.1-2.9
		C220.4,49.7,221.7,49.5,222.8,49.2z"/>
	<path class="st103" d="M215.1,71c0.7-1.3-3-3.4,0.8-4.1c0.4,0.3,0.8,0.6,1.2,0.9c0.5,1.4,1.8,2.9-0.1,4.3
		C216.4,71.8,215.8,71.4,215.1,71z"/>
	<path class="st104" d="M119.8,22c1.5,0.4,2.9,0.8,4.4,1.1c1.6,5.5,7.2,6.2,11,9.4c-6.5-1.2-12.8-2.8-19.4-2.7
		c-1.3-1.7-1.5-3.7-0.9-5.7C116.6,23.5,118.2,22.8,119.8,22z"/>
	<path class="st34" d="M114.9,24.2c1.8,1.7,0.8,3.8,0.9,5.7c-0.3,0.7-0.6,1.5-1,2.2c-0.6,1.4-0.7,3.7-2.7,3.6c-2,0-2-2.2-2.4-3.8
		c-0.3-2.1-1.3-4.3,0.9-6C112,25,113.3,24.1,114.9,24.2z"/>
	<path class="st105" d="M110.8,26c-1,1.9-0.7,4-0.9,6c-0.9-2.2-2.1-3-4.8-2.5c-6.4,1.1-13,1.2-19.1,3.9c-0.1,0-0.1,0.3-0.1,0.5
		c0,0.2,0.2,0.3,0.3,0.4c-0.6,0.3-1.3,0.7-1.9,1c-1-1.7-0.5-2.5,1.4-3.2c4-1.5,8-2.6,12.3-3.2C102.2,28.2,106.5,27,110.8,26z"/>
	<path class="st106" d="M240,199.9c-2-1.6-4-3.2-6.8-1.6c2-3.1,4-6.3,6-9.4c1-0.8,2-0.8,2.9,0.3C239.4,192.4,240,196.2,240,199.9z"
		/>
	<path class="st107" d="M242,189.2c-0.9-0.1-1.9-0.2-2.9-0.3c-2.1-2.8-0.7-4.6,1.8-6c1.2,0.2,2.9-0.4,3.3,1.4
		C244.8,186.4,243.8,188,242,189.2z"/>
	<path class="st8" d="M166.1,64.9c1.9-1.4,1.9-2.6,0.1-4.2c-3.2-3-6.3-6.3-9.4-9.4c-2-1.9-1-2.3,1.1-2.3c3.1,2.9,6.2,2.7,9.2,0
		c10,0.2,17.6,5.6,24.3,12.1c6.4,6.2,10.4,14.1,13.6,22.4c0.4,1,1.7,2.4,0,3.6c-4.1,0.2-7-1.4-8.8-5.1c-0.4-0.8-0.7-1.6-0.6-2.4
		c0.5-6.2-1.5-10.5-6.9-14.9c-0.9-0.7-1.8-1.4-2.9-2c-1.5-0.8-3.1-1.3-5.1-1.9c3.6,4,7.2,7.4,9.6,11.8c1.4,2.6,3.6,4.9,2,8.3
		c-0.7,1.4,0.9,2,1.6,2.8c4.1,4.1,8,8.5,12.4,12.3c4.7,4.2,5.8,9.2,4.3,14.9c-0.6,2.1-1.2,3.8,1.3,5c0.9,0.5,1.2,1.6,1.2,2.6
		c0,2.2,0.4,3.8,2.7,5.2c2.2,1.3,2.4,4.2,1.8,6.8c-0.7,2.7-1.6,5.4-2.9,7.9c1.6-0.5,3.4-2.6,4.4,0.6c0.4,2.5-1.4,3.9-2.9,5.4
		c-6.6,6.4-13,13.1-18,20.9c-0.5,0.8-0.8,1.8-1.1,2.7c-3.6,3.3-7.3,6.7-11,10c3.9-8.7,2-16.3-4.4-23.1c-3-3.2-4.7-7.5-8.5-9.9
		c1.2-3.3,0.6-6.8,1-10.1c3.9-1.5,7.8-1.1,11.7-0.4c2.4,0.4,4.8,1.3,7.1-0.4c2-4.1,0.6-8.5,1.2-12.7c0.2-1.4-0.5-3.6,1.5-3.6
		c1.9,0,2.4,2,2.4,3.8c0,3.6,0,7.1,0,11.4c7.9-11.3,2-32.7-13.5-51.5c-1.3,4.6-3.6,3.1-6,1.2c-4.1-3.1-8.1-6.3-11.7-10.8
		c5-1.4,8.6,0.9,12.5,3.1C175.9,69.4,173.5,67.7,166.1,64.9z"/>
	<path class="st108" d="M163.9,103c-1.6,2-3.1-0.2-4.7-0.1c-8.6-1.6-17.1-3.1-25.3-6.3c-1.7-0.6-3.5-1-4.9-2.2
		c-2.7-1.1-5.4,0.9-8.7,0.2c3-2.9,6.8-3.1,11.2-4.6c-3.9-1.5-6.7-2.4-9.5-1.8c-1.8,0.4-6.1-2-4.9,3.3c0,0.1-0.8,0.4-1.2,0.6
		c-4.4,1.4-8.7,2.7-14.1,4.3c2.7-4,6.2-5.2,9.1-7.1c2.8-1.8,6-2.4,7.9-6.1c1.3-2.5,5.9-2,9.2-2.1c7.2-1.2,13.6,2,20.1,4.2
		c1.9,0.6,3.9,2.4,5.4-0.7c0.3-0.7,1.5-0.8,2.3-0.6c5.5,1.2,10.4,3.5,14,8c0.7,0.9-3.2,9.8-4.4,10
		C164.7,102.2,164.2,102.3,163.9,103z"/>
	<path class="st109" d="M163.9,103c-0.6-2.8-0.6-2.8,2.7-1.8c-1.3-7.1-1.3-7.1,3.3-7.2c-2.9-4.8-7.7-6.7-12.4-8.6
		c-3.2-1.3-4.7-0.4-2.1,4.1c-9.6-3.8-18.2-7.1-27.3-8.3c0.8-0.1,1.6-0.3,2-1.1c0.3-3.1-3.8-2.8-4.2-5.7c2.9-1,5.4,1.9,8.2,1.5
		c0.5-1.6-1.6-1.5-1.7-3.1c4.1-1.4,8,0.2,11.8,1.1c3.4,0.8,6.5,2.4,9.7,3.8c2.4,1,4.9,2.7,7.5,2.4c12.5-1.3,19.2,7.4,26.4,15
		c3.4,3.5,5.3,7.9,5.5,13.2c-3.4-4.7-6.9-9.2-10.2-14c-2.1-3-2.2-1.2-2.4,0.8c-3-0.8-4.1-3.5-5.6-5.1c-5.4,2.2,0,6.8-2.1,10.1
		C171.1,104.5,167.1,102.5,163.9,103z"/>
	<path class="st8" d="M67.2,107c1.6-7,4.1-13.5,8.7-19.1c1,2,2.7,2.2,4.6,2.1c3.2-0.1,6.3-0.2,9.5,0.1c5.2,0.5,8.2,5.4,6.2,9.5
		c-1.1,2.3-2.3,4.4-5.1,0.1c1.3,7.7-1.8,13.8-7.9,17.1c-1.3,0.7-2.7,1.7-4.1,0.3c-1.3-1.2-1.3-2.8-0.8-4.2c0.9-3,2.1-5.9,3.2-8.9
		c0.8-2.1,0.7-2.9-2.1-2.5C74.7,102.3,70.9,104.4,67.2,107z"/>
	<path class="st8" d="M68.1,157c-1.2-3-1.5-6.1-0.2-9.1c0.7,9,7.5,14,13.3,19.5c2.7,2.5,5,5.2,7,8.2c0.6,0.9,1.7,2,0.7,3.1
		c-0.8,0.8-2.3,0.5-3.3,0.1c-6.2-2.6-10.5-7.3-13.6-13.2C70.6,162.7,70.3,159.4,68.1,157z"/>
	<path class="st110" d="M173,100c-0.5-1.8-1.1-3.5-1.3-5.3c-0.1-1.2-3.3-4.1,1.7-3.4c1.6,0.2-0.7-2.6-0.1-4.2
		c3.4,1.9,4.9,5.3,7.4,7.9c0.8,2,2.6,3.6,2.4,6c-1.2,4.2,2.5,7.8,1.8,12.3c-2.5-1.1-2.3-3.7-3.5-5.2c-1.1-1.3-0.3-4.9-4.5-2.7
		C174.8,106.5,174.7,101.7,173,100z"/>
	<path class="st111" d="M128.9,94.4c3.2,0.1,6.2,1.1,9.1,2.1c5,1.7,9.9,3.6,15.4,3.7c2,0,4.3,0.6,5.7,2.7c-5.1,1-10.4,1.3-15.6,1.1
		c-1.6-0.1-3.3,0.5-4.6-1c3.2-2.5,6.5-0.9,9.1-0.6c-2.9-1.3-6.8-0.8-10.6-1c-2.6-0.1-5.4,0.7-7.5-1.5
		C128.8,98.2,129,96.3,128.9,94.4z"/>
	<path class="st112" d="M129.9,99.9c6.8,0.3,13.7-0.7,20.1,3.1c-3.7,0-7.4,0-11.1,0c-7.6,0-15.2,0-22.9,0c0-0.2,0-0.5-0.1-0.7
		C120.6,101.5,125.3,100.7,129.9,99.9z"/>
	<path class="st113" d="M138,122.9c0.3-0.6,0.6-1.2,0.9-1.8c2.2-0.4,3.9,0.9,5.9,1.8C142.6,122.9,140.3,122.9,138,122.9z"/>
	<path class="st114" d="M152,57.2c2.5,4.2,7.8,3.8,11,6.8c-3.6-0.3-2.8,1.5-1.6,3.5c-5.7-1.2-11.2-4.1-16.7-8.9
		C146.9,56.6,149.4,57,152,57.2z"/>
	<path class="st115" d="M117,58c4.8,1,9.4,3,13.9,4.8c-3.5,2.3-7.4,2.4-11.3,2.3c-2.1-0.1-4.6,0.1-5.4-2.4
		C113.5,60.5,115.3,59.2,117,58z"/>
	<path class="st116" d="M138,55c-1.8-0.9-3.6-1.7-4.7-3.5c-1-1.8-2-3.5,0.1-5.3c2.5-2.2,5.2-1.5,7.2,0.3c1.3,1.2,4.4,2.7,1.4,5.4
		C140.7,53,139.3,54,138,55z"/>
	<path class="st117" d="M62.1,155c-0.9-6-3.7-11.9-0.9-18.1c3.4,0.8,1.4,4.2,2.8,6C63.7,147,65,151.3,62.1,155
		C62,155,62.1,155,62.1,155z"/>
	<path class="st118" d="M64,142.9c-0.9-2-1.9-4-2.8-6c0.2-3.7,1.8-6.6,4.2-10.1C67.4,133.1,64,137.8,64,142.9z"/>
	<path class="st119" d="M155.9,159.8c-0.3-0.2-0.6-0.5-0.8-0.8c4.1-3.1,7.1-7.2,10-11.5C165,153.9,160.4,156.8,155.9,159.8z"/>
	<path class="st109" d="M183.2,181.1c-8.4,10.2-16,21.1-29.3,25.8c-2.1-5.5-1.3-7.7,4.1-10.9c4.3-2.5,8.6-5,13.1-7.1
		C175.6,186.9,179.2,183.7,183.2,181.1z"/>
	<path class="st10" d="M219,139c-3.5-2.8-4.1,2-7,2.4c1.6-3.8,3.5-7.3,4.4-11.1c0.9-3.8,0.2-5-3.4-6.1c-0.1,0-0.4,0-0.4-0.1
		c-1.4-2.3,0.8-6.5-1.3-7.3c-3.7-1.4-3.8-2.5-2.1-5.5c2.4-4.2,0.6-10.2-3.1-13.7c-5.3-5-10.3-10.4-15.4-15.6
		c-0.4-0.4-1.8-1.4-0.5-1.7c4.6-0.9,1.4-3.3,0.8-4.5c-3-5.6-6.8-10.6-11.8-14.6c-0.6-0.5-1-1.2-1.6-2c9.7-0.2,16.9,6.6,22.3,19.6
		c-1.1,1-2.1-0.5-3.2-0.2c0.1,5.5,4.8,6.4,8.4,8.3c4.6,4.3,7.7,9.7,10.8,15c2,0.9,2.8,5.1,6.2,2c0.8-0.7,1.9,0.4,2.3,1.3
		c1,2.1,3,2.2,4.8,2.9c0.4,1.6,0.7,3.1,1.1,4.6c-0.4,5.5-1.9,10.8-3.1,16.2c-2.4,3.9-3.1,8.6-6,12.3
		C219.4,141.3,220.2,139.2,219,139z"/>
	<path class="st9" d="M235,95.7c-2.6,0.1-2.6,1.4-1.6,3.2c1.4,2.6,2.2,5.4,2.3,8.7c-2-0.2-3.9-0.9-5.8,0.2c-3.1-1-3.3-3.9-3.8-6.3
		c-1-4.7-2.8-8.7-7.1-11.3c-4,0.5-5.6-1.2-5-5.3c0.4-2.7,0.1-5.5,0.1-8.3c0-1.5,0.3-2.2,1.9-1.5c4.4,5.5,9.9,9.6,15.6,13.6
		C233.5,90.2,236,92.3,235,95.7z"/>
	<path class="st120" d="M235,95.7c-1.6-4.2-4.6-7.3-8.5-9.3c-5-2.5-8.4-6.3-10.6-11.3c1.3-0.2,2.9,0.4,4-0.9
		c7.8,4.6,13.8,10.9,18.1,18.8C236.4,93.3,237,95.9,235,95.7z"/>
	<path class="st121" d="M219,90.1c4,0.4,5.8,3.1,7.1,6.6c1.3,3.7,1,7.9,3.8,11c-0.3,0.2-0.6,0.3-0.9,0.5c-4.6,3.4-4.5-2-6.5-3.5
		c-3.8,4-3.9,3.9-6.8-2.6C221.1,99.2,220.8,94.9,219,90.1z"/>
	<path class="st54" d="M98.8,51c1.1-2.5,0.8-4.7-1.1-6.6c6.8-1.7,13.6-2,20.9,1.1c-5.7,1.6-11.2,1.4-15.7,4.6
		C101.6,50.3,100.2,50.7,98.8,51z"/>
	<path class="st122" d="M167,49c-3.3,5.3-6,5.3-9.2,0c0.4-2.6,1.8-4.1,4.6-4.2C165.2,44.8,166.4,46.6,167,49z"/>
	<path class="st123" d="M166,41.1c-0.8-2.2-0.3-4.1,1.2-5.8c0.2-0.6,0.5-0.6,0.9-0.2c2.1,0.4,3.9,1.4,3.4,3.8
		C170.9,41.9,168.2,41.2,166,41.1z"/>
	<path class="st124" d="M168.1,35.1c-0.3,0.1-0.6,0.2-0.9,0.2c-3.3-2.8-7.5-4-11.2-6.2C161,29,165,31.1,168.1,35.1z"/>
	<path class="st125" d="M184.9,42.9c-0.4,0.4-0.7,0.8-1.1,1.2c-2.4-1.1-4.8-2.1-7.2-3.2C179.8,40.5,182.4,41.5,184.9,42.9z"/>
</g>
</svg>
